/* XPM */
static char *ball[] = {
/* width height num_colors chars_per_pixel */
"    58    52      256            2",
/* colors */
".. c #ffffff",
".# c #101010",
".a c #212121",
".b c #313131",
".c c #424242",
".d c #525252",
".e c #636363",
".f c #6b6b6b",
".g c #737373",
".h c #7b7b7b",
".i c #848484",
".j c #8c8c8c",
".k c #9c9c9c",
".l c #adadad",
".m c #bdbdbd",
".n c #cecece",
".o c #d6d6d6",
".p c #dedede",
".q c #efefef",
".r c #de7b7b",
".s c #bd6363",
".t c #e76363",
".u c #ce4a4a",
".v c #ce3131",
".w c #d61818",
".x c #bd0000",
".y c #7b1810",
".z c #b53121",
".A c #5a2921",
".B c #ad4a39",
".C c #4a2118",
".D c #de4a29",
".E c #94736b",
".F c #de6b4a",
".G c #7b3921",
".H c #5a2910",
".I c #ef6b29",
".J c #f77b29",
".K c #d6b59c",
".L c #635242",
".M c #d67b29",
".N c #7b634a",
".O c #cea573",
".P c #b58c5a",
".Q c #d6a56b",
".R c #f7ad52",
".S c #efdec6",
".T c #d69c4a",
".U c #d68c29",
".V c #ffa531",
".W c #9c7b4a",
".X c #5a4218",
".Y c #c68c21",
".Z c #f7e7c6",
".0 c #cebd9c",
".1 c #8c8473",
".2 c #736b5a",
".3 c #a58c52",
".4 c #9c7b31",
".5 c #bd9439",
".6 c #efce7b",
".7 c #ffc629",
".8 c #efdea5",
".9 c #e7d69c",
"#. c #5a5239",
"## c #b5a573",
"#a c #f7ce4a",
"#b c #847b52",
"#c c #d6cea5",
"#d c #7b6b21",
"#e c #d6ce84",
"#f c #e7de73",
"#g c #a59c39",
"#h c #9c9421",
"#i c #8c8418",
"#j c #ded65a",
"#k c #e7de52",
"#l c #efe752",
"#m c #efe731",
"#n c #cec629",
"#o c #cec610",
"#p c #adad94",
"#q c #848463",
"#r c #636342",
"#s c #6b6b31",
"#t c #8c8c29",
"#u c #636318",
"#v c #ffff21",
"#w c #ffff08",
"#x c #e7ef10",
"#y c #bdc64a",
"#z c #b5bd6b",
"#A c #848c5a",
"#B c #9ca584",
"#C c #7b9c29",
"#D c #848c73",
"#E c #8c9c73",
"#F c #7b8c6b",
"#G c #add684",
"#H c #84c663",
"#I c #528c39",
"#J c #a5c69c",
"#K c #4aad42",
"#L c #8c948c",
"#M c #737b73",
"#N c #5a635a",
"#O c #394239",
"#P c #293129",
"#Q c #a5dea5",
"#R c #4a734a",
"#S c #395a39",
"#T c #639c63",
"#U c #184218",
"#V c #298c29",
"#W c #108c10",
"#X c #086308",
"#Y c #08d610",
"#Z c #5aff63",
"#0 c #73e77b",
"#1 c #5af76b",
"#2 c #4af75a",
"#3 c #42ef52",
"#4 c #39de4a",
"#5 c #10b521",
"#6 c #4ad65a",
"#7 c #8cf79c",
"#8 c #63d673",
"#9 c #31bd4a",
"a. c #c6efce",
"a# c #396342",
"aa c #63ef84",
"ab c #9cf7b5",
"ac c #7bef9c",
"ad c #39ad5a",
"ae c #526b5a",
"af c #73f79c",
"ag c #6be794",
"ah c #395242",
"ai c #8cffb5",
"aj c #9cffc6",
"ak c #528c6b",
"al c #6bb58c",
"am c #08ad63",
"an c #b5efd6",
"ao c #8cb5a5",
"ap c #18b58c",
"aq c #adcec6",
"ar c #94b5ad",
"as c #7ba59c",
"at c #8cadad",
"au c #84b5b5",
"av c #639494",
"aw c #52ced6",
"ax c #31848c",
"ay c #5a949c",
"az c #84e7f7",
"aA c #31cee7",
"aB c #219cad",
"aC c #42636b",
"aD c #5a7b84",
"aE c #63cef7",
"aF c #39add6",
"aG c #a5b5bd",
"aH c #94b5c6",
"aI c #39b5f7",
"aJ c #5aadef",
"aK c #bdd6ef",
"aL c #7b94ad",
"aM c #7b9cbd",
"aN c #8cb5de",
"aO c #315273",
"aP c #3173bd",
"aQ c #84b5ef",
"aR c #3984de",
"aS c #00399c",
"aT c #6b7b9c",
"aU c #29395a",
"aV c #213152",
"aW c #395a9c",
"aX c #315ab5",
"aY c #94adef",
"aZ c #426bd6",
"a0 c #214ab5",
"a1 c #9ca5bd",
"a2 c #1842b5",
"a3 c #849ce7",
"a4 c #5a6ba5",
"a5 c #738cde",
"a6 c #31427b",
"a7 c #4a6bce",
"a8 c #214ac6",
"a9 c #637bd6",
"b. c #314aad",
"b# c #1839bd",
"ba c #949cc6",
"bb c #737bad",
"bc c #5a639c",
"bd c #314ad6",
"be c #9ca5ef",
"bf c #29319c",
"bg c #2931c6",
"bh c #a5a5ad",
"bi c #8484ad",
"bj c #4a4a9c",
"bk c #313173",
"bl c #4242ce",
"bm c #3129a5",
"bn c #5a4ab5",
"bo c #292152",
"bp c #211842",
"bq c #5a4a7b",
"br c #6b42bd",
"bs c #6b42a5",
"bt c #5a3984",
"bu c #522984",
"bv c #9473a5",
"bw c #9c63ad",
"bx c #de9cef",
"by c #de84f7",
"bz c #9429ad",
"bA c #73187b",
"bB c #bdb5bd",
"bC c #b5adb5",
"bD c #524a52",
"bE c #a594a5",
"bF c #4a424a",
"bG c #211821",
"bH c #735273",
"bI c #c673c6",
"bJ c #633963",
"bK c #844284",
"bL c #5a185a",
"bM c #bd10b5",
"bN c #ad108c",
"bO c #a50884",
"bP c #94738c",
"bQ c #de7bc6",
"bR c #de08ad",
"bS c #bd73a5",
"bT c #f700a5",
"bU c #ef009c",
"bV c #c6187b",
"bW c #940852",
"bX c #ce7ba5",
"bY c #c6a5b5",
"bZ c #de3184",
"b0 c #bd7394",
"b1 c #ad0842",
"b2 c #ad526b",
"b3 c #7b4a52",
"b4 c #8c1829",
"b5 c #d65a6b",
"b6 c #943139",
"b7 c #ad0810",
"b8 c #840008",
"b9 c #000000",
/* pixels */
"....................................................................................................................",
"....................................................................................................................",
"....................................................................................................................",
"....................................................................................................................",
"....................................................................................................................",
".................................................q.q.o.n.n.n.o.p....................................................",
"...........................................q.obh.i.f#N.f.f#M#M#M#LbC.n.q............................................",
".......................................q.m.i#N#N#N.f#b.f#M#M#M#M#M.f#MbE.o.p........................................",
"...................................q.m.i#N#N.f.1.1#L#B#L#B#B#B.1.1.i#M#M.ibh.p.q....................................",
".................................pbh.fae.f.1#L.1#B#B###B#B.i#B#B#B#B#L.1#M#Lbh.o.q..................................",
"...............................q.ibF#N.1.1#B.1#B#B#p#p#p#B#B#B#B#B###B#B#B.i#LbC.o.p................................",
".............................p#M.d#M#B#B#B#B#B#p#p#p#p#p#p###p#p#p#p#p#p#p#B#B.k.m.p.q..............................",
"...........................q.i.d.1#B.1#B#B#p#p#p#p.m#p.0#p.0#J#p#p#p#J#p#p#p#B#L.k.naK.q............................",
".........................q#L#N.1.i.1#B#B###p#p#p.m#p.m#J#cbB#p.m#p#p#p#p#p.k#p#p#Lbh.o.p.q..........................",
"........................bB#N.1#L#B#B##ao.0#p.0.K#J.K.n.K.o#J.n.m.K.m.0.m#p.0#p#p#B#Bbh.n.o.q........................",
".......................n#M#M.i#B#B.k.0#p.m.m.m.m.n.n.9.n.n.o.9.m.8.n.m.K#J#p#p#J###B#BbhbC.q........................",
"......................bE.f#L#B#B#p#p#p.m#J.K.n.9.n.9.n.S.9.Z.n.S.m.m.9.m.o.K#p#p#p#p#L#LbhbC.q......................",
"...........q.q.o.nbC.kaC.f.i#L##.l#p.m.K.n.n.n.n.S.n.S.n.n.S.S.n.S.n.n.9.m.m#J#p#J#p#B.1#L#L.o......................",
".......p#J.i#M#Ra##SaUbqaC#M#JbE#p.K#J.m.9.n.9.n.S.o.S.o.S.o.n.S.S.S.n.n.9.m.8#p#p#p#p#B.i.i.k......................",
".......o#K#R#R#I#R.daCaCbq.ibC#p#J.m.m.S.m.S.o.o.S.o.Z.p.o.Z.p.S.o.n.S.S.m.S#J.m#p#p#p#B.1#M#M.o....................",
"........#pad#T#T#T#NbcbqaC#L#p.m.K.m.9.n.S.S.o.Z.p.q.p.S.q.p.S.q.p.S.o.n.S.m.9.m#p.0#p#p#B.1.fbC....................",
".........o#T#T#T#TaebqaCbq.k.0#p.m.n.n.n.S.o.p.S.Z.q...p...q.Z.p.Z.q.S.o.S.n.n.n#J.K#p#p#B.i#Nbv....................",
"..........aq#T#T#TbqaTaO#N#B.m.m.m.9.n.S.S.m#p#B#B.K.Z...S.....q.q.p.p.Z.S.S.n.K#c#J#p#p#B#B#b#M.q..................",
"...........q#J#T#Ta4bHbqaC.k.K#J.n.m.Z#J.ibPb0b2bHbH#L.q...q.q.q.q...S.o.o.n.9.obB.m#p#p.k#B#M.f.n..................",
"..............ac#TbqaCbqaC#p.m.m.K.S#JbHb0bX.EbHbDbp#p.........q...S.q.p.S.S.n.n.9#J.K#J###B#M.f.m..................",
"...............paLaCa4aCbq#JbB.n.n.S#M#NbX.E#NbAbHb2#p.............q.....p.Z.S.n.n.K#J#p#J#L.1.faq..................",
".................ma6bqaeae#p.n.m.S.m.dbF.EbAbFbHb2.EbP.i.1#T#B#p#z#J#J#p.m.m.m#J.n.n.m.K.k#B.1.fbC..................",
".................m.fa6aO.f#L#B.1.i#MbFbpbFbHb2b2bHb0bP#Pb9b9#P#O.#.#bG#P#R#T.f#M#B#z#J#p#p##.1aebC..................",
".................o#M.f.d.dae#N#R#T#T#R#PbHb2b2bHb2bPb0bH.C#ObG.N.c.#.##P.d#bbH.f#M#M#M#M#M#M.f.fbC..................",
"...............n.iaCbqaO#R#R.daeaeaeahbG.GbKbPbHbHbPb0bHbK.GbDbKbHbF#PbF.E##.f#M.iah#O#N#N.d.d.d.i.n.q..............",
"...........o.iah#Pbk#r#N.fahahbFah#P#PbpbHbPb2b0.Eb0bHbHbFbAbFbHbH.f#O#N.E.1#N.d#N.bbp.d.d.d.da6.f#M.i.n............",
".........mbD#X#Sa#.d#N#Na6bF#O#ObFbFbF#O.dbHb0b0bXbPb2bKb3.GbFbHb0.E#P#O#M#R#P#P#ObFbF.dbFah.c.d.f#T.f.f.k.q........",
".......k#P#Uah#R#RbFbFaC.dbFbFbk.dbDaC.dbFbH.EbPbPbH.dbJbHbHbKb2bPbDbG#P#O#P#Pbp.b#Raeae#R.dbk#R#N#T#N#R#R#M.q......",
"....bC#U#Sa##R#S.#.#bFbq.d.da6.cbF.dbF#N#NbD#NbDbFbF#O#O#ObFb2b0bH#N#P#P#Oahah.daeaeaeak#Nak.d#L#Q#L#B#Tae#S.f.q....",
"...pbF#P#Sa##P.#b9b9.#.ca6bF#NbD.d#Nae#N#T#Nae#R#R.dah#S#O#OahbF#N.g.d#Rae#N#Naeae#N.f.f.f.d.faqaq#J#J#L#B#T#R.n....",
"...o.a#U#S.#b9b9b9b9b9b9.#.c#Nae#M#M#Nae#R#N#R#R#R#R#R#R#R#R#R#Rae#Raeak#Naeak#N#T.f.f.fbF#Naq.q.o.naq#J#L#T#Raq....",
"...o#P.#b9b9b9b9b9b9b9.##U#S#Raeaeaeaeae#R#R#R#R#R#N#R#N#N#Raeae#T#N#Taeaeaeae#R#N#RaeahbFaq.q.p.p.o.naqag#T#R#J....",
"...q#Mb9b9b9b9b9b9.##Ua##R#Ra#a#a##R#R#Ra#a#a#.d#R#R#R#R#R#N#R#N#R#RbF#RahahahahbFbFah#O#J.q.q.q.q.oai#p.i#R#S.o....",
".....q#Sb9b9b9b9.#ah#R#Ra#a#a#a##R#Saha#a#a#a#a#aha#a#aha##Sa##S#S#S#S#P#S#S#P#S#S#S#O.faq.n.n.n.n#J#p#M#R.a#p......",
".......oaeb9b9.#a#a#ah#S#Sa##Sa##S#S#R#S#R#S#R#Sa##S#Sa##S#S#S#P#S#P#S.a#S.a#S#P#ObG#S#B#J#J#pag#B#Tae#X#P#L........",
"..........#B#Ub9b9#P#U#S.b#Sa#.b#S#S#S.b#S#S#S#P#S#S#P#S#P#S#P#S#S#S#P.a#S#P#P#P#U#P#R#T#N#Nae#Ra##P#U.daq..........",
".............o.i#Pb9b9.##U#P#S#S#P#S#P#S#S#P#S#S#P#S#S#S#S#P#S#S.a.a#S#P#X#P#U.#.#a##R#R#R#I#S#U.#bFbh.q............",
".................q#J#R#Pb9b9b9.#.#.a#U.a#S.a#S.a#S#P#S.a#S.a.a.a#P#U.a#P#P.#.#.##Ua##P#U.#.##S.fbB.q................",
".......................paq.iah#U.#.#b9b9b9b9.#b9.#.#.#.#.##U.##U.#.#b9b9b9b9b9b9.#.##P#R#Laq.o.q....................",
"...............................nbB#J#L#N#R#S#P#P.##U.#.#b9.#.a.#.##UbG#P#S.d#T#L.k#Q.o..............................",
".........................................q.o.n.n.maq#Q#J#L#I#X#U#B.oaq.o.o.q........................................",
"..........................................................#T#X#X#J..................................................",
"...............................................o.m.n.o.o.o#I#X#u.o..................................................",
".............................................q.m#B#Ta##I#U#X#U#z....................................................",
".................................................p.m#B#B#T#b#J.p....................................................",
"....................................................................................................................",
"...................................................................................................................."
};
SIMPLE  =                    T                                                  BITPIX  =                    8                                                  NAXIS   =                    2                                                  NAXIS1  =                   58                                                  NAXIS2  =                   52                                                  HISTORY Written by XV 3.10a                                                     END                                                                                                                                                                                                                                                                                                                                                                                                                                                                                                                                                                                                                                                                                                                                                                                                                                                                                                                                                                                                                                                                                                                                                                                                                                                                                                                                                                                                                                                                                                                                                                                                                                                                                                                                                                                                                                                                                                                                                                                                                                                                                                                                                                                                                                                                                                                                                                                                                                                                                             ÿÿÿÿÿÿÿÿÿÿÿÿÿÿÿÿÿÿÿÿÿÿÿÿÿÿÿÿÿÿÿÿÿÿÿÿÿÿÿÿÿÿÿÿÿÿÿÿÿÿÿÿÿÿÿÿÿÿÿÿÿÿÿÿÿÿÿÿÿÿÿÿÿÿÿÿÿÿÿÿÿÿÿÿÿÿÿÿÿÿÿÿÿÿÿÿÿÿÿÿÿÿÿÿÿÿÿÿÿÿÿÿÿÿÿÿÿÿÿÿÿÿÿÿÿÿÿÿÿÿÿÿÿÿÿÿÿÿÿÿŞ½œœw´Şÿÿÿÿÿÿÿÿÿÿÿÿÿÿÿÿÿÿÿÿÿÿÿÿÿÿÿÿÿÿÿÿÿÿÿÿÿÿÿÿÿÿÿÿÿÿÿÿï½œOk-5-­ÿÿÿÿÿÿÿÿÿÿÿÿÿÿÿÿÿÿÿÿÿÿÿÿÿÿÿÿÿÿÿÿÿÿÿÿÿÿÿÿÿÿÿÿÿÿÿÿÿÖ½ÎÖÖÖk5WÖÿÿÿÿÿÿÿÿÿÿÿÿÿÿÿÿÿÿÿÿÿÿÿÿÿÿÿÿÿÿÿÿÿÿÿÿÿÿÿÿÿÿÿÿÿÿÿÿÿÿÿÿÿÿ55´ÿÿÿÿÿÿÿÿÿÿÿÿÿÿÿÿÿÿÿÿÿÿÿÿÿÿÿÿÿÿÿÿÿÿÿÿÿÿÿÿÿÿÿÿÿïÖÎÎ½ÁÁ´k5-œÖÁÖÖïÿÿÿÿÿÿÿÿÿÿÿÿÿÿÿÿÿÿÿÿÿÿÿÿÿÿÿÿÿÿÿÿÿÿÿÎ¹´^^I--- !--IRœÁÖÿÿÿÿÿÿÿÿÿÿÿÿÿÿÿÿÿÿÿÿÿÿÿÿÿÿŞÁ„F-     --      -^ÁÖïÿÿÿÿÿÿÿÿÿÿÿÿÿÿÿÿÿÿï´^-   !-!I!I!I-I!I!!!--!---O--Ik¹ïÿÿÿÿÿÿÿÿÿÿÿÿÿÿÖ„-  --II-I-II-II-IIII-II!!I-5--O^^^kI-F¦ïÿÿÿÿÿÿÿÿÿÿÿœ-  --I1IO1III1III-II-I-I-III-!I-----^^^_^O--RÁÿÿÿÿÿÿÿÿÖ_  OOFIIOIOII^I^I^IOIIOIII-I-I!I!I-=Iœ´´©¯œ_5-ÿÿÿÿÿÿïI    F^^OOOO^IFOOOOOFOOFOIOIIII-II-III=kÁÎÎÎÎ´©w^!©ÿÿÿÿïw      -O^^OOO^^^OOOR^^^^^^^^^^F^FFFFFFF=´ïïïïÖË©„^IÖÿÿÿÖ-       -I^_____^^^^^^^^^^__^____^^^_FFÁïŞŞÖÎÁ¯^´ÿÿÿÖ!-I      B^_ww^_^^^^^^^^^^^^_^_r^_r^kkkF^ÁïÖÎÁ´^ÁÿÿÿŞF-IO-  BEF^NR^_^^_^^RFI==FF^sR^_^^__^kkkRkÁÁ´´œ^Îÿÿÿÿ±-IO^IFWRREBFRF^^N^NFF===Fu‘b^--=FFR___r^rRÁœ_Ikïÿÿÿÿÿœ--F^^FFXRFF;RNXRFb}‚‚bRNbbcu‚N-=--!1^__^R;^^^^^wïÿÿÿÿÿÿÿ½N5IOR^^EF==FFF=Rb‘‘‚uc\KFb‘}-=w^--=FFRFFBRkkkœïÿÿÿÿÿÿÿÿÿÖ„F-;]^kFFFF--!b‚u‘}‘bbFFFbbk=^}„^R^1!RRRREkw„ÎÿÿÿÿÿÿÿÿÿÿÿÿÿÎ„XWK^^R___FKc‚bb‚‘bcKNcbF-F}¢kw„F=^^RRR„ÎïÿÿÿÿÿÿÿÿÿÿÿÿÿÿÿÖwkRR_^^^-buubu‚‘b-=gB-Rwbkwwwwwwkk±ÿÿÿÿÿÿÿÿÿÿÿÿÿÿÿÿÿ½kEKkœ„„wF!Fbuub‘‚-  -=-^kwœ­´©©¢„_±ÿÿÿÿÿÿÿÿÿÿÿÿÿÿÿÿÿ½EW__©Î½à½RF}FFbu}‚„„œ©­´´©½½½´ÎÎ½¼œœ„k±ÿÿÿÿÿÿÿÿÿÿÿÿÿÿÿÿŞXnXW´¹ÎÎàw^}^Fbu©ÿÿÿÿÿÿïÿÿŞçàÎÎ¼´©´„kÁÿÿÿÿÿÿÿÿÿÿÿÿÿÿÿÿºWXWX©½½¼à´b‘}bN!©ÿÿÿÿïÿàïŞààÎÎÒ´¼´¢œwk½ÿÿÿÿÿÿÿÿÿÿÿÿÿÿï´nbWXœ¼´Î½ç´„‚‘ubbïÿïïïïÿàÖÖÎÒÖ¹½©©œœwkÎÿÿÿÿÿÿÿÿÿÿÿÿÿÿÁWzK^œ½½½ÒÎàà½©œœ¼çÿàÿÿïïŞŞçààÎ¼Ê´©©œœwwïÿÿÿÿÿÿÿÿÿÿÿÿÿÖ_WXWœ½©½ÎÎÎàÖŞàçïÿŞÿïçŞçïàÖàÎÎÎ´¼©©œ„^†ÿÿÿÿÿÿÿÿÿÿÿÿÿÿ©x^hWX©½¼½ÒÎààÖçŞïŞàïŞàïŞàÖÎà½Ò½©½©©œ„k±ÿÿÿÿÿÿÿÿÿÿÿÿÿÖz^^k^RXXW„±©´½½à½àÖÖàÖçŞÖçŞàÖÎàà½à´½©©©œ„wwÖÿÿÿÿÿÿÿÿÿÿÿÿÿŞ´„w^OI8WXw´œ©¼´½ÒÎÒÎàÖàÖàÖÎàààÎÎÒ½Ú©©©©œ„„œÿÿÿÿÿÿÿÿÿÿÿÿÿÿÿÿïïÖÎ±œXk„¢­©½¼ÎÎÎÎàÎàÎÎààÎàÎÎÒ½½´©´©œ„Öÿÿÿÿÿÿÿÿÿÿÿÿÿÿÿÿÿÿÿÿÿÿœkœœ©©©½´¼ÎÒÎÒÎàÒçÎà½½Ò½Ö¼©©©©¦±ïÿÿÿÿÿÿÿÿÿÿÿÿÿÿÿÿÿÿÿÿÿÿÎww„œœœ½©½½½½ÎÎÒÎÎÖÒ½ÚÎ½¼´©©´¢œœ¦±ïÿÿÿÿÿÿÿÿÿÿÿÿÿÿÿÿÿÿÿÿÿÿÿÿ¹^„œœ¢¤½©½¼´¼Î¼Ö´Î½¼½½½©½©©œœ¦ÎÖïÿÿÿÿÿÿÿÿÿÿÿÿÿÿÿÿÿÿÿÿÿÿÿÿï^„„„œœ¢©©©½©½´Ê¹©½©©©©©œ©©¦ÖŞïÿÿÿÿÿÿÿÿÿÿÿÿÿÿÿÿÿÿÿÿÿÿÿÿÿÿï„R„œ„œœ©©©©½©½©½´©©©´©©©œœÎÑïÿÿÿÿÿÿÿÿÿÿÿÿÿÿÿÿÿÿÿÿÿÿÿÿÿÿÿÿŞwRwœœœœœ©©©©©©¢©©©©©©©œœœ½Şïÿÿÿÿÿÿÿÿÿÿÿÿÿÿÿÿÿÿÿÿÿÿÿÿÿÿÿÿÿÿï„F^„„œ„œœ©©©œœœœœ¢œœœ„±ÖŞÿÿÿÿÿÿÿÿÿÿÿÿÿÿÿÿÿÿÿÿÿÿÿÿÿÿÿÿÿÿÿÿŞ¦k_k„„œœ¢œœ„œœœœ„w¦Öïÿÿÿÿÿÿÿÿÿÿÿÿÿÿÿÿÿÿÿÿÿÿÿÿÿÿÿÿÿÿÿÿÿÿï½„^^k„„œœœœ„„„ww„¦Şïÿÿÿÿÿÿÿÿÿÿÿÿÿÿÿÿÿÿÿÿÿÿÿÿÿÿÿÿÿÿÿÿÿÿÿÿÿï½„^^^kwkwwwwwkwœÖŞÿÿÿÿÿÿÿÿÿÿÿÿÿÿÿÿÿÿÿÿÿÿÿÿÿÿÿÿÿÿÿÿÿÿÿÿÿÿÿÿÿïÖ¦„k^kkwww±ÎïÿÿÿÿÿÿÿÿÿÿÿÿÿÿÿÿÿÿÿÿÿÿÿÿÿÿÿÿÿÿÿÿÿÿÿÿÿÿÿÿÿÿÿÿÿÿïïÖÎÎÎÖŞÿÿÿÿÿÿÿÿÿÿÿÿÿÿÿÿÿÿÿÿÿÿÿÿÿÿÿÿÿÿÿÿÿÿÿÿÿÿÿÿÿÿÿÿÿÿÿÿÿÿÿÿÿÿÿÿÿÿÿÿÿÿÿÿÿÿÿÿÿÿÿÿÿÿÿÿÿÿÿÿÿÿÿÿÿÿÿÿÿÿÿÿÿÿÿÿÿÿÿÿÿÿÿÿÿÿÿÿÿÿÿÿÿÿÿÿÿÿÿÿÿÿÿÿÿÿÿÿÿÿÿÿÿÿÿÿÿÿÿÿÿÿÿÿÿÿÿÿÿÿÿÿÿÿÿÿÿÿÿÿÿÿÿÿÿÿÿÿÿÿÿÿÿÿÿÿÿÿÿÿÿÿÿÿÿÿÿÿÿÿÿÿÿÿÿÿÿÿÿÿÿÿÿÿÿÿÿÿÿÿÿÿÿÿÿÿÿÿÿÿÿÿÿÿÿÿÿÿÿÿÿÿÿÿÿÿÿÿÿÿÿÿÿÿÿÿÿÿÿÿÿÿÿÿÿÿÿÿÿÿÿÿÿÿÿÿÿÿÿÿÿÿÿÿÿÿÿÿÿÿÿÿÿÿÿÿÿÿÿÿÿÿÿÿÿÿÿÿÿÿÿÿÿÿÿÿÿÿÿÿÿÿÿÿÿÿ                                                                                                                                                                                                                                                                                                                                                                                                                                                                                                                                                                                                                                                                                                                                                                                                                                                                                                                                                                                                                                                                                                                                                                                                                                                                                                                                                                                                                                                                                                                                                                                                                                                                                                                                                                                                                                                                                                                                                                                                                                                                                                                                                                                                                                                                                                                                                                                                                                                                                                                                                                                                                                                                                                                                                                                                                                                        