/* XPM */
static char *cluster[] = {
/* width height num_colors chars_per_pixel */
"   100    31      192            2",
/* colors */
".. c #0c060c",
".# c #8c868c",
".a c #4c464c",
".b c #ccc6cc",
".c c #845a84",
".d c #c48acc",
".e c #2c262c",
".f c #6c626c",
".g c #6c4a6c",
".h c #847284",
".i c #b486bc",
".j c #e4e6e4",
".k c #4c364c",
".l c #1c161c",
".m c #c4bac4",
".n c #d4d6dc",
".o c #6c5674",
".p c #949694",
".q c #846a8c",
".r c #5c565c",
".s c #3c363c",
".t c #b4b6bc",
".u c #a476a4",
".v c #9c86a4",
".w c #7c727c",
".x c #543e54",
".y c #cc9ad4",
".z c #b4a6b4",
".A c #ac96ac",
".B c #7c567c",
".C c #946a94",
".D c #5c465c",
".E c #f4f6f4",
".F c #f4d6fc",
".G c #140e14",
".H c #ecc6f4",
".I c #3c2a3c",
".J c #dcaae4",
".K c #ac7eb4",
".L c #b4aeb4",
".M c #644e64",
".N c #7c6a7c",
".O c #6c526c",
".P c #241e2c",
".Q c #84628c",
".R c #c492cc",
".S c #bc8ecc",
".T c #eceeec",
".U c #241624",
".V c #dcdedc",
".W c #6c5e74",
".X c #2c222c",
".Y c #9c8e9c",
".Z c #5c425c",
".0 c #644664",
".1 c #948e94",
".2 c #d4ced4",
".3 c #9c72a4",
".4 c #bc86c4",
".5 c #543a54",
".6 c #a49ea4",
".7 c #846e8c",
".8 c #645e64",
".9 c #ac7aac",
"#. c #9c6e9c",
"## c #ecc2ec",
"#a c #bcaebc",
"#b c #140a14",
"#c c #948694",
"#d c #342634",
"#e c #746274",
"#f c #ece6ec",
"#g c #4c3a4c",
"#h c #745674",
"#i c #8c668c",
"#j c #443244",
"#k c #7c7a7c",
"#l c #544254",
"#m c #d4a2dc",
"#n c #ac9eac",
"#o c #7c5e84",
"#p c #1c121c",
"#q c #442e44",
"#r c #e4aaec",
"#s c #745274",
"#t c #cc92d4",
"#u c #a48eac",
"#v c #0c0a0c",
"#w c #cccacc",
"#x c #845e84",
"#y c #6c4e6c",
"#z c #1c1a1c",
"#A c #c4bec4",
"#B c #dcd6dc",
"#C c #a496a4",
"#D c #645a64",
"#E c #bcbebc",
"#F c #a47aac",
"#G c #2c1e2c",
"#H c #7c767c",
"#I c #7c5a7c",
"#J c #946e9c",
"#K c #5c4a64",
"#L c #fcfefc",
"#M c #f4defc",
"#N c #141214",
"#O c #f4cef4",
"#P c #3c2e3c",
"#Q c #b482bc",
"#R c #b4b2b4",
"#S c #7c6e7c",
"#T c #8c628c",
"#U c #241a24",
"#V c #e4dee4",
"#W c #342234",
"#X c #644a64",
"#Y c #947e94",
"#Z c #bc8ac4",
"#0 c #342a3c",
"#1 c #745a74",
"#2 c #8c6a94",
"#3 c #44364c",
"#4 c #8c8a8c",
"#5 c #c48ecc",
"#6 c #847e84",
"#7 c #acaaac",
"#8 c #fcfafc",
"#9 c #f4f2f4",
"a. c #dca6e4",
"a# c #a48aa4",
"aa c #bcb6bc",
"ab c #745e74",
"ac c #5c5a64",
"ad c #ac9ab4",
"ae c #9c92a4",
"af c #948a9c",
"ag c #a492a4",
"ah c #a49aac",
"ai c #6c666c",
"aj c #f4dafc",
"ak c #ac82b4",
"al c #d4d2d4",
"am c #9c76a4",
"an c #a4a2a4",
"ao c #bcb2bc",
"ap c #eceaec",
"aq c #aca2ac",
"ar c #cc96d4",
"as c #dcdadc",
"at c #f4d2f4",
"au c #e4e2e4",
"av c #b486c4",
"aw c #e4e6ec",
"ax c #4c3654",
"ay c #1c1624",
"az c #a476ac",
"aA c #7c7284",
"aB c #543e5c",
"aC c #cc9adc",
"aD c #946a9c",
"aE c #5c4664",
"aF c #140e1c",
"aG c #b4aebc",
"aH c #644e6c",
"aI c #6c5274",
"aJ c #c492d4",
"aK c #2c2234",
"aL c #5c4264",
"aM c #645e6c",
"aN c #ac7ab4",
"aO c #9c6ea4",
"aP c #34263c",
"aQ c #74627c",
"aR c #4c3a54",
"aS c #74567c",
"aT c #8c6694",
"aU c #44324c",
"aV c #54425c",
"aW c #74527c",
"aX c #845e8c",
"aY c #6c4e74",
"aZ c #c4becc",
"a0 c #2c1e34",
"a1 c #b4aabc",
"a2 c #7c5a84",
"a3 c #3c2e44",
"a4 c #7c6e84",
"a5 c #8c6294",
"a6 c #241a2c",
"a7 c #644a6c",
"a8 c #bc8acc",
"a9 c #e4aeec",
/* pixels */
"#L#L#L#L#L#L#L#L#L#L#L#L#L#L#L#L#L#L#L#L#L#L#L#L#L#L#L#L#8#8auauau#V#A#A#A#A#n#naeae#C#Caf.Y#caf#C#C#C#CaqaqaZ#A#A.malalaw#f.E.E#L#L#L#L#L#L#L#L#L#L#L#L#L#L#L#L#L#L#L#L#L#L#L#L#L#L#L#L#L#L#L#L#L#L#L#L",
"#L#L#L#L#L#L#L#L#L#L#L#L#L#L#L#L#L#L#L#L#8#8#BasaG#R.Y.Y#eaQaH#yaYaIaS.BaW.B#o#x.Q#TaTa5#Ta5a5a5a5aTa5.QaXaXaW.Ba2.BaSaW#haS#1#1#Y#Yadah.baZap#f#L#L#L#L#L#L#L#L#L#L#L#L#L#L#L#L#L#L#L#L#L#L#L#L#L#L#L#L",
"#L#L#L#L#L#L#L#L#L#L#L#L#L#L#L#Lauauaqan.f.f.Z.Za7a7#saIaX#x#2aT#J#J.3.3azaz#F#FaN.KaN.K.K.K.K.K#F.K#FaN#F#FazamaO.3aD#JaT#2#T.Qa2a2#s#s.g.gaH#y.h.7aqaqal#B#8#8#L#L#L#L#L#L#L#L#L#L#L#L#L#L#L#L#L#L#L#L",
"#L#L#L#L#L#L#L#L#L#L#L#L#V.V.#.##l#laBaB.0a7aSaS.QaXaTaTaO#Jazaz#F.9#Q.K.i#Q.4av#Z.4#Z#Z#Z#Z#Z.4#Z.i.4.i#Q#Q#QakaN.Kazaz.3.3#J#JaTaT.Q.Qa2#oaSaSaYaY.0.0aLaL.h.haoao#Vau#L#L#L#L#L#L#L#L#L#L#L#L#L#L#L#L",
"#L#L#L#L#L#L#L#L.E#9#4#4#Pa3axaxaLaL#yaY.BaS.QaXaT.C#JaO#Faz.K.K#Q#Q.4.4.S#Z#5#5#5.R.R#5#taJ.yar.Rar.S#5#Z.4.i#Q#Qak.9.K.uaz.3.3.C.C.Q#iaX#x#IaS#saIaY#ya7a7.0aLaL.ZaEaE#c#capap#L#L#L#L#L#L#L#L#L#L#L#L",
"#L#L#L#L#L#L.Tap.r.r#W#W.k#j.ZaB#X.0#yaIaSaS#x.QaTaT.3#Jaz#Fak.K.i.i#Z#Z#5#5.R.R#t.RaJ#ta.a..F.F#####5#5#Z#Zav.4ak#Q#FaNamamaO#JaTaT.QaX#Ia2aI#ha7#y.0#X.0aE.ZaL.ZaL.ZaL.ZaL.o#1.m.m#L#L#L#L#L#L#L#L#L#L",
"#L#L#L#L#L#L#6#6a6a6#j#qaR.5aV.ZaE.0aHa7#saI#I#I.Q.Q.CaDamaz.K.K.i#Q#Z#Z#5#5#5#5aJ#t#t.R.y.y.J.J#m#m#Z#Z#Z.4#Q#Q.K.K#Faz.3.3aDaD.Q#Ta2a2aIaWa7.gaEaLaBaBaR.5aRaR.x.5aBaB.ZaL.0aE.0.0agag#L#L#L#L#L#L#L#L",
"#L#L#L#Lae.p.Uay.I.I#3#3.5aR.ZaB.0aEaE.0a7.0aY#yaS.B.Q#i#J#.az#F.K#Qav.i#Z#Z.S#5.S.d.S#5.S.d.4.4.4#Q.4.i#Q#Q.K.K#Faz.3.3aDaD.q#T#oa2aI#sa7a7.ZaVax.k#j#j#Pa3#Pa3#j#j#g#g.ZaV#X.0aYaHaYa7.z.z#8#L#L#L#L#L",
"#L#L#w.b#N.G.X#G#qa3.k.k.5.5aB.ZaL.ZaEaL.DaL.ZaVaL.DaIaWaTaT.3.3.9az.K#Q#Q#Q#Q#Q.i.i#Q#Q.i#Q#Qak.K.KaN.K#F#Fam.3#.#J#2#2.Q.Qa2a2#saI#Xa7.xaB#jaU#0#d#G#G#U#U#G#G#0.IaU.kaB.Za7aHaI#saSaSaW#sa1.z#L#L#L#L",
"#L#Lacac#p#p#d#d#j#qaRax.xaBaL.ZaEaL.0.0aEaE.ZaL.xaBaBaBaS#IaD#J.3.3azaz#F.9#F.9.9.9#F#F.u.u.3.u.3.3#J#J#JaD.CaT.qa5#xaX#I.B#s#s#X.0aBaBaU.k#d#d.l.l.G.G.G.G#G.P#q#jaBaB.0a7#saW#Ia2#o#x#o#oaSaW#f#f#L#L",
"ap#f#z.l#U.laP#d#j#jaR#gaBaB.ZaL.0.0a7#X.0a7a7.0.0.0.Z.Z.ZaLaIaI#T.Q.C.C#J#J#J#J#2.CaTaT#i.qa5.QaX#xa2a2.B#1aS.BaSaWaIaI.gaH.0#KaBaB#j#j#G#G#NaF#v#b.G#N.P#G#3.kaL.D#y#yaSaS#o#o.Q.Qa5#ia5#ia2.cagag#L#L",
"#R#R#v..#U#U#daP#jaU.kaRaBaB.DaE#Xa7a7a7aH#y#yaYaYaYaH#ya7a7.0aE.ZaLa7a7aYaY#yaY.ga7aE.ZaLaB.D.D#K#K#K#X#K#K.DaVaR.5.k.kaRaxaU#q#W.X.U.U.l.l#G.P.I.IaR.5aE.0aIaI#Ia2aXaXaT#TaD.CaDaD#J#J#JaDaT#2a2.B#fau",
"#k#k..#b#Ua6#0#daU#jaR.5.x.ZaLaEa7a7#yaYaYaIaW#s#haSaSaSaSaSaSaSaS#haIaI#y#y#ya7a7a7.ZaEaE.0.M#X.Wab#e#e.w.7.Wab#l#l.k.kax#gaR#gaBaBaEaE.ga7#s#ha2a2#xaX.Qa5aT.CaDaD#J#J.3.3amaz.uazazaz.3amaOaO.Qa5#a#a",
"aiai#b#v.P#U#daP#j#jaR.k.ZaBaE.0a7a7#yaY#s#saSaSaS.Ba2a2#oa2#x#x#xaX#x#x#xaX#oaX#x#o#x#x.c#oa2a2.B#I.B.B.BaSaSaSa2a2#o#o#xaX.Q.Q.Q#T#iaTaT#2aDaD#J#J.3.3amamazaz#F#F.K.9.K.K.KaN.K.K#F.Kaz#F.3.3aTaT.A.A",
"ai.8#v..#U#U#d#d#j#q.kax.xaB.0aLa7.gaI#yaS#s#1a2a2#o#x#o#x.Q.Q.Q#T.qa5.qaTaT#2#2aT#2aD#2aD#2aD#2#JaD#2#JaD#J.C#J#J#J#.#J.3.3.3.3.u.3azaz#Faz#F#FaN.9.K.K.K.K#Qak#Q#Q#Q#Q.i#Q#Q#Q#Q#Qak#Q.9.KazazaDaDa#a#",
"#4#4....ay.l#WaKa3a3.k.kaB.x.ZaE#Xa7#yaY#haWa2.B#oa2aXaX.Q#TaTaTaTaTaDaDaD#J#.#J.3#..3.3.3.3.uamazamazaz#Faz#F#FaN#FaNaN.KaN.K.K#Qak#Q#Q.i#Q.i.i.i.i.4av#Z#Z#Z#Z#Z#Z#Z#Z#Z#Z#Z#Z.i.4#Q.i.K.Kaz.uaDaDa#.v",
".t.t....#p#p#G#G#P.I#3#3.5aR.Z.Za7#XaY#yaIaW#1.B#oa2.Q.Q#i.QaTaTaD.C#J#J#.#J.3.3.3amaz.u#F#FaN#F.K.K.K.K.K.K#Q#Q#Q#Q#Q.i.iav.4.4.4#Z#Z#Z#Z#Z#5a8#5#5#5#5#5#5#5#5#5#5#5.S#5.S#Z#Z#Z#Z.i.i.Kakaz#FaD.C#u#u",
"#f.j#p#N.G.G.P#UaP#0#q#j.kaR.ZaV.0.0a7#yaIaI.BaSa2#o#x#xa5#i#2.C#2aD#J#J.3.3.3.uazaz#F#F#F.9.K.K#Qakak#Q#Q.i#Q.i.4.i.4.4#Z#Z#Z#Za8#Z.S#5#5#5#5.R#5.R.R.R.RaJ.RaJ.RaJ.R#5#5#5#5a8#Z#Z#Q.i.K.Kazama5a5.z.z",
"#L#L.8.8.....U.l#d#W#P#P.k#3.5.xaLaE#Xa7aYaYaSaSa2#I#x#o.Q.QaTaTaD.C#J#J.3.3.3amazaz#FaN.K.K.K.K.K#Q#Q.i.i.4.i.4#Z#Z#Z#Z.d.d#5#t#t#t#t.R#taJ#t#t#t#t#t#t#t#t#t#t.R#t#5.R#5#5#Z.d.4.4#Q#QaN.9.3.3#xa2.b.b",
"#L#L.jau#N.G#N.G#G.P#daPa3#qax#gaB.ZaEaE#ya7#saI.BaSa2a2.QaXaT#T#2#2#JaDaO#.az.3.uaz#F#F.KaNak.K#Q#Q#Q#Q.4.i#Z#Z.R.Ra9.Jat#O#M#M.H#O#r#raC.y#t.RaJ#taJ.R#taJ.R.R#5.R#5#5.d#Z#Z.4.i.i.KakazamaDaT.q.q#9#9",
"#L#L#L#L#k#H#v...l.laK.X.I.IaUaU.5.5.Z.ZaE.0aY#yaS#s#I#1aX#x.Q.QaTaT.CaD#J#J.3.3amazazaz.9aN.K.K.Kak#Q#Q.i.i#Z.4.R.R.Ja9at#Oajaj.H###ma.#tar.R#t.R.R#t.R.R.R#5#5#5#5.S#5#Z#Z#Q.i.K#Q#F#F#J#.#oaX.za1#L#L",
"#L#L#L#Lap.T.s.s.G.G.U#U#W.X#q#P.k#3.5.xaL.Za7a7#yaYaSaWa2aS#x#x#T.QaTaT.CaD#J#J.3.3am.u#Faz.KaN.K.K#Qak#Q#Q.i.iav#Z.S.S.S#5.R.R#5.R#5#5#5#5#5#5#5#5#5#5.d#5a8.d#Z#Z.4.i#Q.i.K.K#F#F.3.3aTaT.q.7#9#8#L#L",
"#L#L#L#L#L#Lal.n#v#b.G.G.P#U#daP#ja3.k.kaB.xaE.Za7a7aI#yaSaSa2a2#o#x.Q.QaT#2aDaD#J#J.3.3amaz#F#F#FaN.K.K.K#Q#Q#Q.i.i.i.4.i.4.4.4#Z.4#Z#Z#Z#Z#Z#Z#Z#Z#Z#Z#Z#Z.4.i.i.4ak#Q.K.Kaz#F.3#..CaT#I#1.2.b#L#L#L#L",
"#L#L#L#L#L#L#L#L#7#7#z#z.G.G.P#U#d#da3a3aU.kaB.xaE.Z.0a7#yaY#haSaS#I#o#x.Q.Q#iaT#2.CaDaD#J#..3.3az.uaz#F#FaN#F.K.K.K#Q.K#Qak#Q.i#Q#Q.i#Q.i#Q.4av.i#Q#Q#Qak#Q.Kak.9aN#F#F.3.3aD#J#T.Q#saWao#a#L#L#L#L#L#L",
"#L#L#L#L#L#L#L#L#L#L.b.b.s.s.G.G#U#U#d#W#P.I.kaU.5.5aV.ZaE#Xa7#yaIaWaSaSa2#IaX#x.Q#TaTaTaD#2aDaD#.#J.3.3.uamaz#F#F#F#F.9.K.K.KaN.K.K.K.K.K.K.K.9.K.K.9#F.9#Fazaz.3am#J#.aT.C#x#xaI#sahah#8#L#L#L#L#L#L#L",
"#L#L#L#L#L#L#L#L#L#L#L#Lap.j.r.r#b#b.l.laKaK.I.I#3#jaRax.ZaBaE.0a7a7#yaY#haWaS#Ia2a2aX.Qa5#iaTaT#2#2#J#J#J#J.3#..3.3.3.3.3.3azam#Faz.uazazazazam.u.3.3.3#J#.#J#JaTaT.Q.Q.BaS.OaH#aaG#L#L#L#L#L#L#L#L#L#L",
"#L#L#L#L#L#L#L#L#L#L#L#L#L#L.E#9.6.6.P.e.G#p#U.P#daPa3#q#3.k.5.5.Z.ZaE.0a7.gaIaY#saSaSaS#Ia2#x#o#T.Qa5aT#2aT.C#2aD.C#J#JaD#JaD#JaD#J#J#J#J#JaDaD#2aDaTaTaT.qaX#xaS.B.g#y.N.Nal.n#L#L#L#L#L#L#L#L#L#L#L#L",
"#L#L#L#L#L#L#L#L#L#L#L#L#L#L#L#L#L#L.T.T#R#7.a.a.l#p#U.U#d#Wa3a3aUaU.5aRaBaVaL.Za7.0#y#yaIaIaW#saSaS.B#Ia2a2#o#x#o#xaX#x.Q.Q#x.QaX.Q#x.QaX#xa2#o.B#IaSaWaY.g.ZaLa4.Naa#R#9#9#L#L#L#L#L#L#L#L#L#L#L#L#L#L",
"#L#L#L#L#L#L#L#L#L#L#L#L#L#L#L#L#L#L#L#L#L#L.E#9#E#Eaiai.e.Xay.U#G.P#d.I#q#q#3.kaRaRaBaB.ZaLaEaE.0#Xa7a7#yaYaYaYaYaIaI#s#s#s#s#saIaYaY#y.gaH.0.0aBaB.D.D.waA#w#w#8#8#L#L#L#L#L#L#L#L#L#L#L#L#L#L#L#L#L#L",
"#L#L#L#L#L#L#L#L#L#L#L#L#L#L#L#L#L#L#L#L#L#L#L#L#L#L#L#Lau.j#7#7.w#H.s.s.P.P#G#G#Ga0#d.Ia3#qaU.k#3.kaxax.x.5.5.xaBaB.5.5axaRaRaRax.k#gaRaR#l#S#S.L.L.jaw#L#L#L#L#L#L#L#L#L#L#L#L#L#L#L#L#L#L#L#L#L#L#L#L",
"#L#L#L#L#L#L#L#L#L#L#L#L#L#L#L#L#L#L#L#L#L#L#L#L#L#L#L#L#L#L#L#L#L#L#9.Easas#R#Ran#7.#.#.w#H#D#D#D#D#D#D#DaMaM#D.f.f.w.w.1.Y.1.1#R#R.2.2.T.T#L#L#L#L#L#L#L#L#L#L#L#L#L#L#L#L#L#L#L#L#L#L#L#L#L#L#L#L#L#L"
};
SIMPLE  =                    T                                                  BITPIX  =                    8                                                  NAXIS   =                    2                                                  NAXIS1  =                  100                                                  NAXIS2  =                   31                                                  HISTORY Written by XV 3.10a                                                     END                                                                                                                                                                                                                                                                                                                                                                                                                                                                                                                                                                                                                                                                                                                                                                                                                                                                                                                                                                                                                                                                                                                                                                                                                                                                                                                                                                                                                                                                                                                                                                                                                                                                                                                                                                                                                                                                                                                                                                                                                                                                                                                                                                                                                                                                                                                                                                                                                                                                                             ٲyy^^^^]]````eevv䪪vv;;""%%&&..55==??BBGGHHIIGGDDEEAAAAHHuuhh''""//99>>EEKKPPSSUUYY]]^^__``bbcc__^^ZZSSKKOOxx찰GG++55==DDKKPPUUZZ__cceeiillnnpprrssrrrrrrqqmmjjdd\\QQtt&&  ..77??GGMMSSYY__ccgglloossxx{{}}~~}}zzwwppgg[[rrVV((33<<CCKKRRXX^^ddhhmmrrwwyy||{{tthh]]99**44??FFMMTT[[aaffllppuuyy~~{{pp``  --66??HHOOVV^^ddhhnnssxx||vvcc  --88@@IIQQXX__ddkkppuuzz||jj88))55??HHOOXX^^ddjjppuuzzwwyyyy

''11<<FFMMUU]]cchhoottyy~~ؿpp""..88BBLLRRYYaaggllrrww||ǵ}}vv__		))55>>HHQQWW^^eekkppuuzz~~oo  //99BBLLTTZZ``ggmmqqww{{yy%%33==EEOOVV\\cciimmrrww{{~~((66@@HHQQXX^^ddiimmqquuyy||~~ff--88AAJJRRYY^^cchhlloorruuwwxxzz{{{{~~~~~~hh  ..::CCKKRRYY^^bbffiikkmmooppppqqppoooonnlljjiiffggkkooqqttvvyy{{{{{{  ..;;DDKKRRXX\\``cceeffffffeeaa]][[XXQQSSWWffkkwwggJJ??CCCCJJSSZZccllqqww||tt..;;CCKKQQVVYY[[]]]]\\XXRRPPVV]]]]YYPPMMQQSSUUTTMMEEAABB99((""33EESSaajjqqxx}}{{kk--::CCJJPPTTVVWWVVTTNNNN``tt~~~~zzwwuupplliihhee``[[UUJJ::$$$$??PP\\ffoouuxxxxnn]]++99BBHHNNQQSSRROOIIJJii||vvppiiaaVVJJ==,,##::JJWWbbjjnnnnee&&77@@GGMMPPQQPPNNPPaayy||ttllaaUUJJ<<..$$$$00??LLZZaaffbb22>>EELLQQSSVV\\gguuwwllbbXXMMAA::5555::BBLLUU[[[[~~!!::DDMMTTZZ``jjttúuukkccYYQQJJFFEEFFJJOOTTTTVV))>>LLUU^^ffqqzzժ{{rrkkbb[[VVRRPPPPPPOObb55BBQQ\\ggqq{{}}vvpphhaa]]XXSSNNRR܈HHJJWWggrr{{{{ttnnff]]UUQQyy⢢ffNNWWaapp{{||uukkcc[[\\yyزkk\\__ggffnnuuxxwwwwxxwwqqeejjddeeffÿ                                                                                                                                                                                                                                                                                                                                                                                                                                                                                                                                                                                                                                                                                                                                                                                                                                                                                                                                                                                                                                                                                                                                                                                                                                                                                                                                                                                                                                                                                                                                                                                                                                                                                                                                                                                                                                                                                                                                                                                                                                                                                                                                                                                                                                                                                                                                                                                                                                                                                                                                                                                                                                                                                                                                                                    