/* XPM */
static char *mux[] = {
/* width height num_colors chars_per_pixel */
"   100    47      238            2",
/* colors */
".. c #0b0b00",
".# c #0d0d00",
".a c #0e0e00",
".b c #0f0f00",
".c c #101000",
".d c #111100",
".e c #121200",
".f c #131300",
".g c #141400",
".h c #151500",
".i c #161600",
".j c #171700",
".k c #181800",
".l c #191900",
".m c #191901",
".n c #1a1a02",
".o c #1d1d00",
".p c #1e1e00",
".q c #1f1f07",
".r c #202000",
".s c #202008",
".t c #212100",
".u c #222200",
".v c #292912",
".w c #2a2a00",
".x c #2c2c00",
".y c #303000",
".z c #313100",
".A c #33331d",
".B c #343400",
".C c #353500",
".D c #393900",
".E c #393925",
".F c #3a3a00",
".G c #3b3b27",
".H c #40402d",
".I c #424200",
".J c #434300",
".K c #444400",
".L c #454532",
".M c #484800",
".N c #484836",
".O c #494900",
".P c #4d4d3c",
".Q c #505000",
".R c #51513f",
".S c #535300",
".T c #535342",
".U c #545400",
".V c #545443",
".W c #565600",
".X c #575700",
".Y c #585800",
".Z c #595900",
".0 c #5e5e00",
".1 c #606050",
".2 c #6b6b5c",
".3 c #6f6f00",
".4 c #707000",
".5 c #707062",
".6 c #717100",
".7 c #727200",
".8 c #737365",
".9 c #757500",
"#. c #767600",
"## c #777700",
"#a c #7a7a00",
"#b c #7c7c71",
"#c c #7f7f00",
"#d c #7f7f74",
"#e c #818174",
"#f c #848400",
"#g c #85857e",
"#h c #878700",
"#i c #898900",
"#j c #8a8a7e",
"#k c #8c8c00",
"#l c #8d8d00",
"#m c #8e8e00",
"#n c #919186",
"#o c #929200",
"#p c #959500",
"#q c #99998f",
"#r c #9a9a00",
"#s c #9a9a86",
"#t c #9a9a91",
"#u c #9b9b00",
"#v c #9d9d00",
"#w c #9e9e00",
"#x c #9f9f00",
"#y c #a4a49b",
"#z c #a6a600",
"#A c #a9a900",
"#B c #aaaa00",
"#C c #abab00",
"#D c #abab02",
"#E c #ababa2",
"#F c #acac00",
"#G c #adad00",
"#H c #adad01",
"#I c #adada4",
"#J c #aeae00",
"#K c #afaf00",
"#L c #b0b000",
"#M c #b1b100",
"#N c #b2b200",
"#O c #b3b300",
"#P c #b3b3ab",
"#Q c #b4b400",
"#R c #b5b500",
"#S c #b6b600",
"#T c #b7b700",
"#U c #b7b719",
"#V c #b7b71c",
"#W c #b8b800",
"#X c #b8b801",
"#Y c #b8b81c",
"#Z c #b9b900",
"#0 c #b9b95a",
"#1 c #baba00",
"#2 c #baba01",
"#3 c #babab2",
"#4 c #bbbb00",
"#5 c #bbbbb4",
"#6 c #bcbc00",
"#7 c #bdbd00",
"#8 c #bdbd24",
"#9 c #bdbd25",
"a. c #bdbd3c",
"a# c #bdbdb6",
"aa c #bebe00",
"ab c #bfbf00",
"ac c #c0c000",
"ad c #c1c100",
"ae c #c2c200",
"af c #c2c216",
"ag c #c3c300",
"ah c #c3c31f",
"ai c #c4c400",
"aj c #c4c419",
"ak c #c4c44d",
"al c #c4c4be",
"am c #c5c500",
"an c #c6c600",
"ao c #c7c700",
"ap c #c7c741",
"aq c #c8c83f",
"ar c #c9c926",
"as c #caca29",
"at c #caca5c",
"au c #cbcb0f",
"av c #cbcb4a",
"aw c #cbcbc5",
"ax c #cccc51",
"ay c #ccccc7",
"az c #cdcd9d",
"aA c #d2d275",
"aB c #d2d2cd",
"aC c #d2d2ce",
"aD c #d3d35c",
"aE c #d3d371",
"aF c #d3d3ce",
"aG c #d8d8d4",
"aH c #d9d963",
"aI c #d9d96d",
"aJ c #d9d974",
"aK c #d9d975",
"aL c #d9d985",
"aM c #dcdc92",
"aN c #dcdcd9",
"aO c #dddd62",
"aP c #dfdf85",
"aQ c #e0e0a1",
"aR c #e0e0dd",
"aS c #e1e19c",
"aT c #e1e1de",
"aU c #e3e39d",
"aV c #e4e494",
"aW c #e4e4af",
"aX c #e5e5ab",
"aY c #e6e6a5",
"aZ c #e8e8a4",
"a0 c #e8e8a5",
"a1 c #e8e8e2",
"a2 c #e8e8e6",
"a3 c #e9e9a4",
"a4 c #e9e9a7",
"a5 c #e9e9a8",
"a6 c #e9e9b3",
"a7 c #e9e9e6",
"a8 c #eaeaa8",
"a9 c #eaeaab",
"b. c #eaeabb",
"b# c #ebeba5",
"ba c #ececa5",
"bb c #ececa6",
"bc c #ececc6",
"bd c #ededc7",
"be c #ededeb",
"bf c #ededec",
"bg c #eeeebb",
"bh c #eeeebf",
"bi c #f1f1c4",
"bj c #f1f1f0",
"bk c #f2f2d3",
"bl c #f4f4d0",
"bm c #f4f4de",
"bn c #f5f5ce",
"bo c #f5f5d9",
"bp c #f5f5de",
"bq c #f6f6f5",
"br c #f7f7da",
"bs c #f7f7db",
"bt c #f7f7dc",
"bu c #f7f7dd",
"bv c #f8f8e4",
"bw c #f8f8e5",
"bx c #f8f8e7",
"by c #f8f8e9",
"bz c #f8f8f7",
"bA c #f9f9f8",
"bB c #fafae9",
"bC c #fafaf1",
"bD c #fafaf9",
"bE c #fbfbee",
"bF c #fcfcf2",
"bG c #fcfcf3",
"bH c #fcfcf4",
"bI c #fcfcf5",
"bJ c #fcfcfc",
"bK c #fdfdf8",
"bL c #fdfdfc",
"bM c #fefefb",
"bN c #fefefc",
"bO c #fefefe",
"bP c #fffffd",
"bQ c #fffffe",
"bR c #ffffff",
/* pixels */
"a1a1a1azazaYaYbababab#b#a0a0a0a0a0a0a0a0a0a0a0a4a4aZaZaZa5a5a5a5a8a8a8a8a8a8a8a8a8a8a8a8a8a8a8a8a8a8a8a8a8a8a8a3a3bibibibububsbsbsbsbsbsbsbsbsbsbsbsbsbsbsbsbsbsbsbsbtbtbtblblbBbBbPbPbRbRbRbRbRbRbRbRbR",
"aNaNaN.c.c.C.C#c#c#c#A#A#6#6#6#6#6#6#6#6#6#6#6#7#7abababacacadadadadadadadaeaeaeaeagagagagagagagagagaiaiaiaiaiaiaiaiaiaiaiaiaiaiamamamamamamamamamamamanananananaoaoaoaoaoaoaoauauaOaObbbbbbbnbnbrbrbGbG",
"bRbRbR#b#b.....g.g.g.o.o#f#fagag#1#1#1#1#1#4#4#4#4#4#4#4#4#4#6#6#6#6#6#6#6#7#7#7#7#7#7#7#7#7aaaaaaaaaaaaaaaaaaabababababaaaaabababababababababacacacacacacacacacaeaeaeaeaeadadaeaeabababababadadaeaeaHaH",
"bRbRbRaFaF.g.g.k.k.k.#.#.X.Xabab#T#T#T#T#T#W#W#W#W#W#W#W#W#W#Z#Z#Z#Z#Z#Z#Z#Z#Z#1#1#1#1#1#1#1#1#1#4#4#4#4#4#4#4#4#4#6#6#6#6#6#6#6#6#6#7#7#7#7#7#7#7aaaaaaaaaaaaaaaaaaabababababababacacacacacacacababaVaV",
"bRbRbRbqbq.L.L.i.i.i.h.h.x.x#B#B#4#4#4#T#T#W#W#W#W#W#W#W#W#W#Z#Z#Z#Z#Z#Z#Z#Z#Z#1#1#1#1#1#1#1#1#1#4#4#4#4#4#4#4#4#4#6#6#6#6#6#6#6#6#6#7#7#7#7#7#7#7#7#7aaaaaaaaaaaaaaabababababababababacacacababararbEbE",
"bRbRbRbRbRa#a#.j.j.j.k.k.c.c.6.6acacac#T#T#T#T#T#T#W#W#W#W#W#W#W#W#W#W#Z#Z#Z#Z#Z#Z#Z#Z#Z#1#1#1#1#1#1#1#1#1#4#4#4#4#4#4#4#4#4#6#6#6#6#6#6#6#6#6#7#7#7#7#7#7#7#7#7aaaaaaaaaaaaaaababababababab#6#6bgbgbRbR",
"bRbRbRbRbRa2a2.v.v.v.j.j.e.e.I.I#Z#Z#Z#W#W#T#T#T#T#T#T#T#W#W#W#W#W#W#W#W#W#Z#Z#Z#Z#Z#Z#Z#Z#Z#Z#Z#1#1#1#1#1#1#1#1#1#4#4#4#4#4#4#4#4#4#6#6#6#6#6#6#6#7#7#7#7#7#7#7#7#7aaaaaaaaaaaaaaaaaaaaaaaaasasbIbIbRbR",
"bRbRbRbRbRbRbR.8.8.8.e.e.k.k.l.l#m#m#m#7#7#S#S#T#T#T#T#T#T#T#T#T#W#W#W#W#W#W#W#W#W#Z#Z#Z#Z#Z#Z#Z#Z#Z#1#1#1#1#1#1#1#1#1#1#4#4#4#4#4#4#4#4#4#6#6#6#6#6#6#6#6#6#7#7#7#7#7#7#7#7#7aaaaaaaa#7#7#7a9a9bRbRbRbR",
"bRbRbRbRbRbRbR#5#5#5.m.m.k.k.c.c.S.S.S#6#6#T#T#T#T#T#T#T#T#T#T#T#T#T#T#W#W#W#W#W#W#W#W#W#Z#Z#Z#Z#Z#Z#Z#Z#Z#1#1#1#1#1#1#1#1#1#4#4#4#4#4#4#4#4#4#4#4#6#6#6#6#6#6#6#7#7#7#7#7#7#7#7#7#7#7ajajajbwbwbRbRbRbR",
"bRbRbRbRbRbRbRbAbAbA.N.N.i.i.h.h.w.w.w#F#F#Z#Z#S#S#S#S#S#T#T#T#T#T#T#T#T#T#W#W#W#W#W#W#W#W#W#W#W#Z#Z#Z#Z#Z#Z#Z#Z#Z#1#1#1#1#1#1#1#1#1#4#4#4#4#4#4#4#4#4#6#6#6#6#6#6#6#6#6#6#7#7#7#7#6#6aIaIaIbRbRbRbRbRbR",
"bRbRbRbRbRbRbRbRbRbR#E#E.e.e.j.j.k.k.k#l#l#7#7#S#S#S#S#S#S#S#S#S#T#T#T#T#T#T#T#T#T#W#W#W#W#W#W#W#W#W#W#W#W#Z#Z#Z#Z#Z#Z#Z#Z#Z#1#1#1#1#1#1#1#1#1#4#4#4#4#4#4#4#4#4#6#6#6#6#6#6#6#4#4afafbvbvbvbRbRbRbRbRbR",
"bRbRbRbRbRbRbRbRbRbRbzbz.G.G.i.i.d.d.d.U.U#1#1#S#S#S#S#S#S#S#S#S#S#S#S#S#S#T#T#T#T#T#T#T#T#T#W#W#W#W#W#W#W#W#W#Z#Z#Z#Z#Z#Z#Z#Z#Z#Z#Z#1#1#1#1#1#1#1#1#1#4#4#4#4#4#4#4#4#4#4#6#6#Z#ZaPaPbRbRbRbRbRbRbRbRbR",
"bRbRbRbRbRbRbRbRbRbRbRbR#q#q.b.b.j.j.j.r.r#w#w#1#1#R#R#R#S#S#S#S#S#S#S#S#S#S#S#T#T#T#T#T#T#T#T#T#W#W#W#W#W#W#W#W#W#W#W#W#Z#Z#Z#Z#Z#Z#Z#Z#Z#1#1#1#1#1#1#1#1#1#4#4#4#4#4#4#4#1#1ahahbFbFbRbRbRbRbRbRbRbRbR",
"bRbRbRbRbRbRbRbRbRbRbRbRaCaC.g.g.k.k.k.d.d.3.3aaaa#R#R#R#R#R#R#R#S#S#S#S#S#S#S#S#S#S#S#S#T#T#T#T#T#T#T#T#T#W#W#W#W#W#W#W#W#W#Z#Z#Z#Z#Z#Z#Z#Z#Z#Z#Z#1#1#1#1#1#1#1#1#1#4#4#4#Z#ZaJaJbRbRbRbRbRbRbRbRbRbRbR",
"bRbRbRbRbRbRbRbRbRbRbRbRbqbq.L.L.i.i.i.g.g.B.B#K#K#T#T#T#R#R#R#R#R#R#R#R#R#S#S#S#S#S#S#S#S#S#T#T#T#T#T#T#T#T#T#T#T#W#W#W#W#W#W#W#W#W#Z#Z#Z#Z#Z#Z#Z#Z#Z#Z#Z#Z#1#1#1#1#1#1#1#2#2bhbhbRbRbRbRbRbRbRbRbRbRbR",
"bRbRbRbRbRbRbRbRbRbRbRbRbRbR#3#3.i.i.i.k.k.h.h#h#h#6#6#6#Q#Q#R#R#R#R#R#R#R#R#R#R#R#S#S#S#S#S#S#S#S#S#T#T#T#T#T#T#T#T#T#T#T#T#W#W#W#W#W#W#W#W#W#W#W#Z#Z#Z#Z#Z#Z#Z#Z#Z#W#W#WaDaDbQbQbRbRbRbRbRbRbRbRbRbRbR",
"bRbRbRbRbRbRbRbRbRbRbRbRbRbRbebe.E.E.E.j.j.c.c.Z.Z#4#4#4#Q#Q#Q#Q#R#R#R#R#R#R#R#R#R#R#R#R#S#S#S#S#S#S#S#S#S#S#S#T#T#T#T#T#T#T#T#T#T#T#W#W#W#W#W#W#W#W#W#W#W#W#Z#Z#Z#Z#X#X#XbobobRbRbRbRbRbRbRbRbRbRbRbRbR",
"bRbRbRbRbRbRbRbRbRbRbRbRbRbRbRbR#y#y#y.c.c.g.g.z.z#F#F#F#T#T#Q#Q#Q#Q#Q#Q#Q#R#R#R#R#R#R#R#R#R#R#R#S#S#S#S#S#S#S#S#S#S#S#S#T#T#T#T#T#T#T#T#T#T#T#W#W#W#W#W#W#W#W#W#S#SaKaKaKbRbRbRbRbRbRbRbRbRbRbRbRbRbRbR",
"bRbRbRbRbRbRbRbRbRbRbRbRbRbRbRbRaRaRaR.q.q.j.j.f.f#.#.#.#4#4#Q#Q#Q#Q#Q#Q#Q#Q#Q#Q#Q#R#R#R#R#R#R#R#R#R#R#R#R#S#S#S#S#S#S#S#S#S#S#S#T#T#T#T#T#T#T#T#T#T#T#W#W#W#T#T#X#XbwbwbwbRbRbRbRbRbRbRbRbRbRbRbRbRbRbR",
"bRbRbRbRbRbRbRbRbRbRbRbRbRbRbRbRbJbJbJ.P.P.i.i.d.d.K.K.K#T#T#Q#Q#O#O#O#Q#Q#Q#Q#Q#Q#Q#Q#Q#Q#Q#Q#Q#R#R#R#R#R#R#R#R#R#R#R#R#S#S#S#S#S#S#S#S#S#S#S#T#T#T#T#T#T#T#S#SaqaqbNbNbNbRbRbRbRbRbRbRbRbRbRbRbRbRbRbR",
"bRbRbRbRbRbRbRbRbRbRbRbRbRbRbRbRbRbRbR#I#I.f.f.j.j.p.p.p#p#p#Z#Z#O#O#O#O#O#O#O#Q#Q#Q#Q#Q#Q#Q#Q#Q#Q#Q#R#R#R#R#R#R#R#R#R#R#R#R#R#R#S#S#S#S#S#S#S#S#S#S#S#T#T#T#T#TaUaUbRbRbRbRbRbRbRbRbRbRbRbRbRbRbRbRbRbR",
"bRbRbRbRbRbRbRbRbRbRbRbRbRbRbRbRbRbRbRbzbz.H.H.i.i.c.c.c.Y.Y#Z#Z#O#O#O#O#O#O#O#O#O#O#O#O#Q#Q#Q#Q#Q#Q#Q#Q#Q#Q#Q#Q#Q#R#R#R#R#R#R#R#R#R#R#R#R#S#S#S#S#S#S#R#R#RavavbMbMbRbRbRbRbRbRbRbRbRbRbRbRbRbRbRbRbRbR",
"bRbRbRbRbRbRbRbRbRbRbRbRbRbRbRbRbRbRbRbRbR#t#t.a.a.h.h.h.x.x#A#A#R#R#R#N#N#O#O#O#O#O#O#O#O#O#O#O#Q#Q#Q#Q#Q#Q#Q#Q#Q#Q#Q#Q#Q#Q#R#R#R#R#R#R#R#R#R#R#R#S#S#O#O#Oa6a6bRbRbRbRbRbRbRbRbRbRbRbRbRbRbRbRbRbRbRbR",
"bRbRbRbRbRbRbRbRbRbRbRbRbRbRbRbRbRbRbRbRbRa7a7.v.v.i.i.i.f.f.9.9#Z#Z#Z#N#N#N#N#N#N#O#O#O#O#O#O#O#O#O#O#O#O#Q#Q#Q#Q#Q#Q#Q#Q#Q#Q#Q#Q#Q#R#R#R#R#R#R#R#O#OaxaxaxbNbNbRbRbRbRbRbRbRbRbRbRbRbRbRbRbRbRbRbRbRbR",
"bRbRbRbRbRbRbRbRbRbRbRbRbRbRbRbRbRbRbRbRbRbRbR#e#e.d.d.d.f.f.F.F#M#M#M#O#O#N#N#N#N#N#N#N#N#N#N#N#O#O#O#O#O#O#O#O#O#O#O#O#O#O#Q#Q#Q#Q#Q#Q#Q#Q#Q#Q#Q#O#ObkbkbkbRbRbRbRbRbRbRbRbRbRbRbRbRbRbRbRbRbRbRbRbRbR",
"bRbRbRbRbRbRbRbRbRbRbRbRbRbRbRbRbRbRbRbRbRbRbRalal.c.c.c.i.i.t.t#x#x#x#R#R#M#M#N#N#N#N#N#N#N#N#N#N#N#N#N#N#O#O#O#O#O#O#O#O#O#O#O#O#O#Q#Q#Q#Q#Q#O#OapapbNbNbNbRbRbRbRbRbRbRbRbRbRbRbRbRbRbRbRbRbRbRbRbRbR",
"bRbRbRbRbRbRbRbRbRbRbRbRbRbRbRbRbRbRbRbRbRbRbRbfbf.E.E.E.i.i.f.f.7.7.7#Z#Z#M#M#M#M#M#M#M#N#N#N#N#N#N#N#N#N#N#N#N#N#O#O#O#O#O#O#O#O#O#O#O#O#O#O#N#NaSaSbRbRbRbRbRbRbRbRbRbRbRbRbRbRbRbRbRbRbRbRbRbRbRbRbR",
"bRbRbRbRbRbRbRbRbRbRbRbRbRbRbRbRbRbRbRbRbRbRbRbRbR#y#y#y.c.c.f.f.C.C.C#G#G#O#O#M#M#M#M#M#M#M#M#M#N#N#N#N#N#N#N#N#N#N#N#N#N#N#N#N#O#O#O#O#O#N#N#8#8bxbxbRbRbRbRbRbRbRbRbRbRbRbRbRbRbRbRbRbRbRbRbRbRbRbRbR",
"bRbRbRbRbRbRbRbRbRbRbRbRbRbRbRbRbRbRbRbRbRbRbRbRbRaRaRaR.s.s.i.i.j.j.j#i#i#T#T#L#L#M#M#M#M#M#M#M#M#M#M#M#M#M#M#N#N#N#N#N#N#N#N#N#N#N#N#N#N#K#KaXaXbRbRbRbRbRbRbRbRbRbRbRbRbRbRbRbRbRbRbRbRbRbRbRbRbRbRbR",
"bRbRbRbRbRbRbRbRbRbRbRbRbRbRbRbRbRbRbRbRbRbRbRbRbRbRbRbR.2.2.h.h.d.d.d.Q.Q#R#R#M#M#L#L#L#L#L#L#L#M#M#M#M#M#M#M#M#M#M#M#M#M#M#M#M#N#N#M#M#M#9#9bHbHbRbRbRbRbRbRbRbRbRbRbRbRbRbRbRbRbRbRbRbRbRbRbRbRbRbRbR",
"bRbRbRbRbRbRbRbRbRbRbRbRbRbRbRbRbRbRbRbRbRbRbRbRbRbRbRbRayay.j.j.h.h.h.u.u#v#v#Q#Q#L#L#L#L#L#L#L#L#L#L#L#L#L#L#M#M#M#M#M#M#M#M#M#M#M#J#J#Jb.b.bRbRbRbRbRbRbRbRbRbRbRbRbRbRbRbRbRbRbRbRbRbRbRbRbRbRbRbRbR",
"bRbRbRbRbRbRbRbRbRbRbRbRbRbRbRbRbRbRbRbRbRbRbRbRbRbRbRbRbqbq.V.V.g.g.g.e.e.4.4#W#W#K#K#K#K#K#L#L#L#L#L#L#L#L#L#L#L#L#L#L#L#L#M#M#L#L#U#U#UbybybRbRbRbRbRbRbRbRbRbRbRbRbRbRbRbRbRbRbRbRbRbRbRbRbRbRbRbRbR",
"bRbRbRbRbRbRbRbRbRbRbRbRbRbRbRbRbRbRbRbRbRbRbRbRbRbRbRbRbRbRawaw.f.f.f.d.d.M.M#O#O#L#L#L#K#K#K#K#K#K#K#K#K#L#L#L#L#L#L#L#L#L#L#L#K#KaEaEaEbRbRbRbRbRbRbRbRbRbRbRbRbRbRbRbRbRbRbRbRbRbRbRbRbRbRbRbRbRbRbR",
"bRbRbRbRbRbRbRbRbRbRbRbRbRbRbRbRbRbRbRbRbRbRbRbRbRbRbRbRbRbRbjbj.A.A.A.g.g.o.o#o#o#O#O#O#J#J#K#K#K#K#K#K#K#K#K#K#K#K#K#K#K#K#K#K#Y#YbpbpbpbRbRbRbRbRbRbRbRbRbRbRbRbRbRbRbRbRbRbRbRbRbRbRbRbRbRbRbRbRbRbR",
"bRbRbRbRbRbRbRbRbRbRbRbRbRbRbRbRbRbRbRbRbRbRbRbRbRbRbRbRbRbRbRbR#d#d#d.d.d.c.c.0.0#S#S#S#J#J#J#J#J#J#J#J#J#K#K#K#K#K#K#K#K#K#C#CaLaLbRbRbRbRbRbRbRbRbRbRbRbRbRbRbRbRbRbRbRbRbRbRbRbRbRbRbRbRbRbRbRbRbRbR",
"bRbRbRbRbRbRbRbRbRbRbRbRbRbRbRbRbRbRbRbRbRbRbRbRbRbRbRbRbRbRbRbRaTaTaT.n.n.f.f.y.y#z#z#z#M#M#J#J#J#J#J#J#J#J#J#J#J#J#J#J#G#G#V#VbCbCbRbRbRbRbRbRbRbRbRbRbRbRbRbRbRbRbRbRbRbRbRbRbRbRbRbRbRbRbRbRbRbRbRbR",
"bRbRbRbRbRbRbRbRbRbRbRbRbRbRbRbRbRbRbRbRbRbRbRbRbRbRbRbRbRbRbRbRbObObO.1.1.g.g.f.f#######R#R#G#G#J#J#J#J#J#J#J#J#J#J#J#J#B#BaMaMbRbRbRbRbRbRbRbRbRbRbRbRbRbRbRbRbRbRbRbRbRbRbRbRbRbRbRbRbRbRbRbRbRbRbRbR",
"bRbRbRbRbRbRbRbRbRbRbRbRbRbRbRbRbRbRbRbRbRbRbRbRbRbRbRbRbRbRbRbRbRbRbR#P#P.f.f.e.e.J.J.J#K#K#J#J#G#G#G#G#G#G#G#G#G#G#G#G#G#GbdbdbRbRbRbRbRbRbRbRbRbRbRbRbRbRbRbRbRbRbRbRbRbRbRbRbRbRbRbRbRbRbRbRbRbRbRbR",
"bRbRbRbRbRbRbRbRbRbRbRbRbRbRbRbRbRbRbRbRbRbRbRbRbRbRbRbRbRbRbRbRbRbRbRbDbD.R.R.f.f.r.r.r#u#u#L#L#F#F#G#G#G#G#G#G#G#F#F#FatatbQbQbRbRbRbRbRbRbRbRbRbRbRbRbRbRbRbRbRbRbRbRbRbRbRbRbRbRbRbRbRbRbRbRbRbRbRbR",
"bRbRbRbRbRbRbRbRbRbRbRbRbRbRbRbRbRbRbRbRbRbRbRbRbRbRbRbRbRbRbRbRbRbRbRbRbR#n#n.e.e.h.h.h#a#a#Q#Q#F#F#F#F#F#F#F#F#F#D#D#DbcbcbRbRbRbRbRbRbRbRbRbRbRbRbRbRbRbRbRbRbRbRbRbRbRbRbRbRbRbRbRbRbRbRbRbRbRbRbRbR",
"bRbRbRbRbRbRbRbRbRbRbRbRbRbRbRbRbRbRbRbRbRbRbRbRbRbRbRbRbRbRbRbRbRbRbRbRbRaGaG.k.k.f.f.f.D.D#A#A#J#J#F#F#F#F#F#A#AaAaAaAbRbRbRbRbRbRbRbRbRbRbRbRbRbRbRbRbRbRbRbRbRbRbRbRbRbRbRbRbRbRbRbRbRbRbRbRbRbRbRbR",
"bRbRbRbRbRbRbRbRbRbRbRbRbRbRbRbRbRbRbRbRbRbRbRbRbRbRbRbRbRbRbRbRbRbRbRbRbRbqbq.T.T.f.f.f.k.k#k#k#M#M#C#C#C#C#C#A#AbmbmbmbRbRbRbRbRbRbRbRbRbRbRbRbRbRbRbRbRbRbRbRbRbRbRbRbRbRbRbRbRbRbRbRbRbRbRbRbRbRbRbR",
"bRbRbRbRbRbRbRbRbRbRbRbRbRbRbRbRbRbRbRbRbRbRbRbRbRbRbRbRbRbRbRbRbRbRbRbRbRbRbRaBaB.g.g.g.e.e.W.W#L#L#F#F#F#A#AakakbNbNbNbRbRbRbRbRbRbRbRbRbRbRbRbRbRbRbRbRbRbRbRbRbRbRbRbRbRbRbRbRbRbRbRbRbRbRbRbRbRbRbR",
"bRbRbRbRbRbRbRbRbRbRbRbRbRbRbRbRbRbRbRbRbRbRbRbRbRbRbRbRbRbRbRbRbRbRbRbRbRbRbRbRbR#j#j#j.g.g.t.t#r#r#J#J#J#A#AaQaQbRbRbRbRbRbRbRbRbRbRbRbRbRbRbRbRbRbRbRbRbRbRbRbRbRbRbRbRbRbRbRbRbRbRbRbRbRbRbRbRbRbRbR",
"bRbRbRbRbRbRbRbRbRbRbRbRbRbRbRbRbRbRbRbRbRbRbRbRbRbRbRbRbRbRbRbRbRbRbRbRbRbRbRbRbRbLbLbL.5.5.g.g#.#.#L#L#La.a.bKbKbRbRbRbRbRbRbRbRbRbRbRbRbRbRbRbRbRbRbRbRbRbRbRbRbRbRbRbRbRbRbRbRbRbRbRbRbRbRbRbRbRbRbR",
"bRbRbRbRbRbRbRbRbRbRbRbRbRbRbRbRbRbRbRbRbRbRbRbRbRbRbRbRbRbRbRbRbRbRbRbRbRbRbRbRbRbRbRbRbRbR#g#g.O.O#H#H#HaWaWbRbRbRbRbRbRbRbRbRbRbRbRbRbRbRbRbRbRbRbRbRbRbRbRbRbRbRbRbRbRbRbRbRbRbRbRbRbRbRbRbRbRbRbRbR",
"bRbRbRbRbRbRbRbRbRbRbRbRbRbRbRbRbRbRbRbRbRbRbRbRbRbRbRbRbRbRbRbRbRbRbRbRbRbRbRbRbRbRbRbRbRbRbObO#s#s#0#0#0bMbMbRbRbRbRbRbRbRbRbRbRbRbRbRbRbRbRbRbRbRbRbRbRbRbRbRbRbRbRbRbRbRbRbRbRbRbRbRbRbRbRbRbRbRbRbR"
};
SIMPLE  =                    T                                                  BITPIX  =                    8                                                  NAXIS   =                    2                                                  NAXIS1  =                  100                                                  NAXIS2  =                   47                                                  HISTORY Written by XV 3.10a                                                     END                                                                                                                                                                                                                                                                                                                                                                                                                                                                                                                                                                                                                                                                                                                                                                                                                                                                                                                                                                                                                                                                                                                                                                                                                                                                                                                                                                                                                                                                                                                                                                                                                                                                                                                                                                                                                                                                                                                                                                                                                                                                                                                                                                                                                                                                                                                                                                                                                                                                                             ==mmccHHPPvv00ffNN888]]ddd((}}}OO///{{<<QQ^^hhCCss,,,555```~~00%%bb%%==JJ}}JJ999ccc))555KKqqBB++]]77FFvvEE###FFFpppwww%%%77__BB%%

IIzz		oo,,kkk                                                                                                                                                                                                                                                                                                                                                                                                                                                                                                                                                                                                                                                                                                                                                                                                                                                                                                                                                                                                                                                                                                    