/* XPM */
static char *blue[] = {
/* width height num_colors chars_per_pixel */
"    65    65       75            2",
/* colors */
".. c #31c6ff",
".# c #31bdf7",
".a c #29b5ef",
".b c #29bdf7",
".c c #21ade7",
".d c #21b5ef",
".e c #31bdff",
".f c #29b5f7",
".g c #21adef",
".h c #29b5ff",
".i c #21adf7",
".j c #18a5ef",
".k c #31b5ff",
".l c #29adf7",
".m c #21a5ef",
".n c #31adff",
".o c #29a5f7",
".p c #29adff",
".q c #21a5f7",
".r c #189cef",
".s c #29a5ff",
".t c #219cef",
".u c #21a5ff",
".v c #189cf7",
".w c #219cf7",
".x c #1894ef",
".y c #1894f7",
".z c #299cff",
".A c #2194f7",
".B c #219cff",
".C c #188cef",
".D c #2194ff",
".E c #188cf7",
".F c #1084ef",
".G c #2994ff",
".H c #218cf7",
".I c #1884ef",
".J c #188cff",
".K c #1084f7",
".L c #218cff",
".M c #1884ff",
".N c #1884f7",
".O c #107bef",
".P c #107bf7",
".Q c #2184ff",
".R c #187bf7",
".S c #187bff",
".T c #1073ff",
".U c #1073f7",
".V c #217bff",
".W c #1873ff",
".X c #1873f7",
".Y c #106bf7",
".Z c #106bff",
".0 c #0863f7",
".1 c #186bff",
".2 c #1063ff",
".3 c #1063f7",
".4 c #1863ff",
".5 c #105af7",
".6 c #085aff",
".7 c #085af7",
".8 c #105aff",
".9 c #0852ff",
"#. c #0852f7",
"## c #1052ff",
"#a c #084af7",
"#b c #084aff",
"#c c #0042ff",
"#d c #0842ff",
"#e c #0842f7",
"#f c #0039ff",
"#g c #0839ff",
"#h c #0031ff",
"#i c #0029ff",
/* pixels */
".w.B.L.S.3.2.8.9#..8.2.Z.1.Y.Z.3.2.U.D.p.k.o.x.D.M.L.A.D.E.O.M.S.N.L.N.L.M.R.T.1.8#b#..1.N.s.p.p.z.L.Y.8#b.8.1.U.Y.3.8.8.1.U.L.H.L",
".w.D.N.S.Y.Z.2.7.8.8.2.2.Z.Z.Z.3.W.M.B.r.q.A.L.S.R.M.L.L.L.Q.U.M.M.N.L.L.N.S.Z.5####.3.Q.s.l.k.o.D.R.2##.8.Z.U.Q.M.X.W.Y.S.L.D.N.S",
".D.D.L.Q.W.Z.3.2.2.2.2.Y.Y.Y.3.1.Z.M.D.A.D.L.S.W.W.R.M.M.Q.Q.P.R.N.N.D.N.N.Y.2.9#b.2.R.w.l.e.k.s.N.W.2.2.3.S.L.L.N.R.S.R.Q.J.R.S.1",
".D.L.L.P.S.Z.1.2.2.2.1.Y.W.1.8.8.2.Y.Q.L.L.S.Z.Z.W.R.R.L.M.S.P.N.I.D.y.E.S.2#b#d.8.Q.w.h.f.k.w.B.Q.S.Z.Z.W.N.D.A.N.Q.U.M.R.S.W.2.8",
".D.L.M.U.U.W.Z.2.2.2.2.Z.3.8.9#b.9.2.S.R.S.S.Y.U.X.M.N.N.N.O.E.E.C.A.E.Q.1#b#g.9.U.z.q.e.k.n.B.D.N.S.W.W.S.M.N.L.R.S.S.S.W.3.8####",
".D.N.U.Y.Y.Z.2.8.8.8.2.2.8.9#d#d##.1.S.M.M.U.S.S.Q.R.J.L.L.N.D.w.y.A.R.2#b#f.9.Z.E.s.l.l.p.s.D.N.Q.Y.1.Z.W.U.U.R.U.Y.Y.Y.8###b#b##",
".C.N.U.Y.Y.1.8.9.9.9.7.2.8#b#d#b.8.Y.L.N.M.P.R.M.M.L.P.E.A.C.w.w.C.M.0#b#f#b.1.N.A.s.w.u.z.D.L.M.U.3.8.8.2.W.S.S.W.W.Z###d#g#g#b.2",
".D.N.P.U.Z.8.9#b#b.8.3.1.3.8##.8.W.N.D.E.R.R.X.S.Q.L.L.A.s.q.r.x.N.1#b#g#b.2.R.D.w.w.z.z.D.I.J.X.2.9#b.9.2.1.Y.W.W.Z#.#d#h#h#d.8.S",
".A.H.Q.S.2###b#b.9.Z.U.S.W.1.Y.S.L.H.H.L.M.S.S.X.Q.L.B.w.p.l.r.I.W###g#b.2.M.D.z.z.B.A.E.H.L.M.Z###b#d##.7.W.W.W.W.8#b#h#i#d.2.M.A",
".w.A.L.S.2##.9##.1.L.E.D.L.Q.N.D.D.A.L.S.W.W.W.U.L.D.s.q.h.q.E.Y.9#g#b.7.W.E.B.y.E.D.E.D.H.L.M.Z.9#b##.8.Z.W.U.Y.2###d#h#g.8.Q.o.l",
".w.B.L.S.Z.8.2.1.N.w.t.z.B.z.A.z.A.L.Q.W.1.1.U.S.N.z.p.l.p.D.U#.#d#d.8.1.U.L.E.D.D.E.N.E.A.D.Q.W.2.8.8.3.W.W.W.1.7#.#d#b.2.Q.q.f.e",
".s.z.L.M.W.1.W.M.z.o.t.p.s.p.w.w.z.L.X.W.2.Z.W.N.D.p.l.q.A.V#.#d#b#b.2.Z.X.N.L.L.L.E.I.B.s.w.A.N.Y.1.1.Y.W.U.W.Y.3#..8.2.R.s.e.e.e",
".s.A.H.L.R.U.S.L.w.t.p.p.p.p.q.w.z.L.U.W.Z.W.P.E.s.p.o.B.M.5#b#e#b#..2.1.Y.R.M.L.L.D.C.p.k.l.B.L.S.Y.W.Y.X.U.S.W.W.Z.Z.S.A.p.e.l.f",
".z.A.D.L.S.W.S.Q.G.w.q.l.p.n.p.w.A.L.R.W.W.U.E.x.p.q.A.R.Z#.###..8.7.2.Z.Y.S.M.M.N.A.x.e.f.k.w.N.S.T.W.W.S.W.S.X.T.Y.Y.R.D.p.p.l.l",
".A.y.F.R.Y.Z.W.S.D.x.s.p.q.m.o.w.z.E.R.S.M.N.w.q.s.A.L.Y.Z.3.3.Z.2.5.2.Z.Y.S.R.S.N.D.t.m.k.p.E.M.W.U.W.W.W.U.S.U.Y.W.W.M.D.y.w.o.p",
".D.E.M.Z.5.7.1.S.D.x.p.o.t.p.o.s.z.D.L.J.D.w.o.r.x.D.Q.S.S.Q.R.R.W.Z.3.Y.U.S.Y.S.U.L.y.r.p.B.P.W.Z.W.S.R.R.R.U.Y.3.Z.1.U.H.z.p.l.q",
".D.M.W.2.9.2.Y.N.E.B.s.s.q.p.p.s.w.E.E.D.y.s.s.s.A.M.M.N.H.A.C.N.R.S.W.W.W.W.Z.2.Z.S.N.D.D.R.W.Y.Y.S.U.S.P.S.W.Z.2.2.Y.U.A.q.q.m.w",
".L.Q.W.8.2.1.M.E.A.B.z.B.w.o.p.p.q.z.z.w.s.s.y.I.O.Q.L.w.l.p.q.B.N.Q.S.U.W.2##.9.8.Z.S.M.N.S.W.U.U.S.Q.R.X.Y.5.7.7.3.U.E.s.q.k.w.E",
".D.L.S.W.Y.M.E.D.A.D.D.B.z.x.r.t.x.B.z.A.w.I.L.S.S.M.x.l.f.f.q.z.E.L.M.S.1###d#d#b.2.M.N.N.R.X.R.Q.Q.L.S.1.8####.8.1.L.s.j.l.x.N.W",
".A.A.N.R.L.E.z.D.H.D.D.D.z.x.w.s.B.B.D.E.N.S.W.1.R.A.m.e...a.l.w.D.N.M.Y.8#d#g#d.8.Y.E.D.L.L.L.N.N.M.R.Z###d#d#b.8.W.D.p.l.p.L.1.8",
".l.s.C.D.D.z.B.D.L.L.L.L.D.D.A.B.D.A.D.O.W.2##.Z.N.p.g.f.f.f.p.z.E.N.S.8#b#g#d##.U.L.z.x.D.D.N.L.L.Q.1###g#h#f#d.8.W.H.w.w.L.1###b",
".k.r.o.w.s.B.D.E.N.N.R.L.E.N.L.L.E.L.M.3.8#b.7.U.B.p.f.k.k.p.w.A.L.S.2#b#d#d##.W.L.s.q.s.A.D.D.D.N.W###g#i#i#h#d.8.1.R.L.R.Z###d#d",
".f.k.q.q.w.w.D.N.N.M.N.M.S.S.W.M.S.R.1.9#b.8.W.D.q.m.k.q.s.s.A.D.S.Z.9#d#d##.2.Q.z.s.r.s.y.z.z.L.Q.2#b#h#i#i#i#f#b.2.W.U.Z.8#b#d#d",
".e.l.p.r.s.z.E.M.L.M.M.W.Z.2.Z.1.W.1###b.8.U.E.w.q.q.p.s.w.w.E.Q.1.9#b#b#b.2.W.L.A.w.w.w.w.B.A.D.Q.Z###g#h#i#i#i#g.9.1.W.Z.8#b#d#d",
".p.k.p.s.z.E.L.N.L.S.W.2.9.8.8.2.2##.9.7.W.E.A.s.w.w.s.s.A.D.L.Z.9#b#d#b.8.2.X.L.D.A.z.s.s.x.z.D.L.W.2#b#g#h#i#i#g.2.U.S.W.2###d#g",
".r.n.t.s.D.N.L.M.Q.U.2.8#b##.9.8##.8.2.S.L.A.w.s.w.z.z.w.A.L.S.2.9#b#b##.8.1.S.Q.D.x.B.B.w.r.r.A.D.Q.W.5#b#g#h#g.8.R.L.E.U.Z.9#b#c",
".x.s.s.E.F.E.L.N.Q.S.2.8#b######.8.2.Y.N.C.w.z.s.w.B.w.D.H.R.W.5###b#..8.2.2.W.L.A.s.v.B.w.p.p.p.w.C.N.U.5###b.2.S.D.s.E.R.3.8.9#b",
".x.A.z.D.D.L.N.L.N.U.Z.8.9#.##.8.2.S.O.D.B.x.s.w.w.z.w.z.L.U.T.2.8.9#..8.2.Z.R.A.s.s.z.x.z.s.q.p.t.s.D.N.Y.1.Y.M.G.s.B.E.U.1.2.8.6",
".A.z.z.E.L.D.A.D.D.M.W.1.2.8.2.Z.W.P.H.z.B.w.w.s.u.A.z.D.N.Q.U.3.2.8#..8.Z.S.H.w.p.w.A.y.z.w.s.p.m.l.s.A.O.M.R.D.z.B.D.Q.W.1.1.1.S",
".w.s.B.D.D.z.w.w.s.G.L.S.W.W.W.U.R.E.A.B.s.p.l.p.s.A.L.L.L.N.Y.2.8.8.8.2.S.L.s.p.y.A.N.L.L.z.y.r.l.g.k.s.E.L.L.D.A.L.M.S.W.W.S.M.D",
".p.w.x.y.C.s.l.m.o.s.A.L.E.Q.S.Q.D.D.z.s.m.e.f.w.z.N.P.L.M.U.1.8####.8.3.S.H.s.w.G.N.R.S.M.N.E.A.s.k.p.w.E.L.L.L.L.M.S.Y.Y.M.D.s.s",
".l.r.s.w.w.q.q.g.i.r.w.q.A.L.Q.L.L.z.s.f.g.e.k.B.Q.Y.U.U.S.Z.8#b#b#b.8.3.X.N.D.D.R.W.T.W.S.S.R.E.B.s.A.D.N.J.L.L.M.U.U.W.P.z.l.k.i",
".p.w.B.C.s.s.p.p.f.f.l.w.E.Q.R.M.L.A.q.g.#.l.B.S.1.3.1.1.1.8###b#b#d.9.8.Y.S.R.S.W.1.Z.2.2.3.W.U.N.A.E.L.N.L.M.R.S.W.U.M.H.x.j.c.q",
".q.w.E.E.D.A.p.o.k.k.p.D.N.X.R.R.N.D.p.k.k.A.U.8###..2.1.8###b#d#d#f#d#b.8.2.2.2.2.1.7.9#b##.2.S.L.E.H.L.N.P.P.R.S.S.S.M.A.q.g.l.w",
".z.E.M.M.M.D.z.s.y.y.D.M.S.W.W.S.R.H.B.s.D.W#.#b#b.9.2.2.8###b#f#g#h#h#g#b####.8.8.8###d#d#d.8.V.H.E.D.N.N.M.S.S.X.W.S.M.D.s.s.A.N",
".L.S.T.S.U.U.O.P.P.N.M.X.W.Y.3.3.W.U.Q.Q.1.9#d#d#b.8.2.Z.8###d#g#h#i#h#h#g#d#b#b.8.9#b#d#d##.W.E.z.s.B.E.Q.R.S.S.W.Y.1.U.M.D.G.L.S",
".U.1.1.Z.3.Z.2.W.R.X.Y.Y.1.2.8.9.8.1.2.8#b#d#d#b.8.Z.W.1.8#b#g#h#i#h#h#h#h#g#d.9#..8#b#b.9.Y.L.s.m.s.w.D.L.P.S.U.3.2.2.W.P.E.E.R.S",
".W.Z.3.8#.#b.8.1.U.W.W.W.3.8#b#b#b#b#b#g#g#d#b#..3.W.Y.3###g#h#i#i#h#h#h#h#g#b.8.2.5.8.7.W.N.s.h.q.o.y.D.L.P.S.W.2.8.8.Z.L.B.B.D.L",
".Y.Z.8###b##.2.Z.W.S.U.W.Z.6.9#b#d#f#h#h#g#d.8.1.W.T.Z###d#h#i#i#h#f#f#h#g#b.2.W.U.W.Z.W.L.x.h.p.q.w.B.B.D.L.R.1.8.8.2.N.z.p.q.y.G",
".W.3.8.9##.8.1.W.U.S.R.Q.W.1###d#g#h#h#h#d.9.3.W.W.1.8#d#h#i#h#g#d#d#d#d#b.8.S.M.M.S.R.L.z.q.q.p.p.w.z.z.z.E.S.T.3.1.R.z.g.e.k.p.z",
".U.1.3.2.8.Z.W.S.S.L.E.E.R.Z.6#d#h#h#h#d.9.Z.W.S.W.2#b#h#i#h#g#d###b#b.9.8.W.R.L.N.N.N.D.z.w.u.s.s.w.s.s.B.A.N.U.U.P.A.l.e.d.h.p.q",
".Q.R.W.2.2.Z.S.Q.D.w.s.B.E.U.8#b#f#h#d##.1.S.S.U.Z.8#d#h#h#g#b.8.8###a.8.3.S.N.L.L.L.N.E.E.D.B.B.z.s.o.w.q.y.E.P.R.L.s.f.e.k.q.p.q",
".D.R.1.8.2.1.U.L.w.l.m.r.F.U.7#b#d#d.9.1.W.S.R.U.1.8#b#d#d#b.8.2.8####.8.2.W.M.N.M.N.O.L.L.D.H.D.A.A.q.p.t.w.D.S.R.R.E.q.l.k.w.p.x",
".N.Y.8##.8.Z.Q.D.p.l.i.w.N.Y.3#.#a.8.2.U.S.U.R.U.Y.5.8##.8.2.1.2.8#b#b##.8.3.X.P.N.R.M.Q.R.L.L.L.D.w.s.q.q.A.R.Z.Z.Y.N.x.q.w.s.s.B",
".W.8#b#b.9.1.R.A.q.q.q.E.P.U.3.7.8.2.1.W.S.Q.N.M.V.W.1.Y.Y.Z.2.8#b#d#g#d.8.Z.U.R.Q.M.Q.Q.V.P.R.Q.L.D.z.B.B.U.2.9#b.1.N.y.q.o.w.s.z",
".8#b#d#b.6.Z.Q.z.s.s.A.N.Q.S.1.8.8.2.Z.W.M.Q.N.M.Q.M.X.S.S.W.1.9#d#h#h#d.8.W.U.R.Q.N.Q.V.S.W.W.S.R.N.E.D.R.2#b#d.9.W.D.w.q.w.w.z.D",
"###b#d#b.8.1.S.N.B.z.E.L.M.1.2###b.8.2.W.M.N.L.N.N.N.L.R.R.W.Z###d#h#g.9.3.X.R.R.N.N.N.S.W.Y.W.Y.S.Q.Q.R.Z###d#b.2.R.w.q.w.w.A.z.G",
".8####.9.8.Z.S.L.E.z.H.N.S.2.9#d#b.8.Y.U.L.N.H.L.D.L.L.L.M.Q.Y.8#b#b.9.7.T.R.R.L.D.E.F.M.W.W.1.2.W.S.S.S.1##.9.2.R.B.n.p.s.z.D.D.D",
".2.8.8.8.2.1.Q.z.w.s.z.L.Z.8#b#d#a.2.S.L.N.N.L.E.L.L.D.H.E.H.M.Y.2.2.2.W.S.M.D.x.q.x.I.M.W.1.2.1.W.U.M.X.Z.1.W.Q.z.p.p.w.B.D.L.N.D",
".Z.8.8.8.1.R.B.p.k.r.B.M.3###b#b.2.W.Q.D.D.E.E.H.D.H.D.B.s.A.L.R.W.1.W.V.M.A.s.h.k.r.C.S.W.2.3.1.S.M.L.Q.S.R.R.y.w.o.w.z.D.N.N.D.z",
".5####.2.S.E.l.f.e.p.D.P.1.8.8.2.U.N.L.L.D.D.H.D.E.E.z.s.q.s.D.P.S.W.S.P.D.s.g.d.e.r.I.W.1.2.1.S.N.E.E.N.L.L.D.z.s.s.z.H.L.N.E.x.x",
"#b#b.8.W.L.o.l.a.k.p.D.L.W.Y.T.S.L.D.D.E.D.A.D.H.L.D.w.p.p.x.I.R.S.S.R.N.C.h.f.d.k.H.R.1.2.Z.Y.S.L.z.z.z.E.E.A.A.y.A.D.L.L.E.B.p.p",
"#f#b.2.X.C.t.l.m.l.s.B.H.Q.P.M.L.D.D.E.D.C.D.E.L.Q.L.D.w.s.C.N.S.S.W.S.N.C.l.h.q.z.R.W.2.3.2.W.S.L.D.z.D.E.H.C.z.z.z.E.E.N.z.p.k.e",
"#d#b.2.M.C.u.p.s.s.s.w.y.E.E.H.D.D.D.D.C.A.D.Q.W.W.X.Q.D.D.N.U.W.Y.W.W.M.E.x.z.D.S.W.Z.2.2.2.Z.W.Q.E.L.L.N.E.B.B.w.B.B.D.B.p.e.f.g",
"#b#..Z.S.L.H.A.D.B.z.w.x.A.z.D.D.D.A.A.B.E.R.1.8.8.2.U.Q.R.S.W.W.3.2.Z.Y.R.P.P.S.Y.Z.2.8####.6.Y.R.N.D.L.D.D.B.q.q.s.w.B.s.p.e.m.s",
".9.2.Y.W.S.R.R.R.H.D.z.C.y.z.E.D.G.C.A.E.M.Z###d#b.7.W.S.S.W.W.Z.2.8.2.2.3.Y.1.2.2.2.8#b#b#b.6.W.N.H.G.D.D.s.r.l.q.x.z.z.s.l.p.w.L",
".2.Z.1.1.2.2.3.U.Q.D.z.z.A.E.B.E.E.E.D.M.W.8#d#g#b.2.W.W.U.W.1.5.8##.9.9.8.8.8.8.7.2###b#g##.Z.Q.A.A.A.A.s.r.l.f.q.z.F.L.z.B.z.L.W",
".2.2.2.8##.9.8.Y.Q.L.A.A.A.D.D.A.E.D.L.R.1###d#d##.1.S.S.W.3.8.8.9##.9#a######.2.1.2.8.9#b.2.R.z.o.s.B.w.r.q.k.p.D.Q.S.P.N.D.L.S.1",
".7.8.9#b#d#b#..Y.M.D.A.D.A.E.D.I.E.D.L.R.Z.8###..Z.S.R.U.1.8.9####.9###b#b##.8.W.S.S.Z.2.1.M.x.q.o.s.A.x.x.s.w.A.M.W.W.U.L.E.Q.S.W",
".9.8#b#d#d.9.2.U.L.E.E.D.D.H.D.I.C.D.H.R.T.2.1.Y.U.R.W.Z.2###b.9.8.9.9#b.9.8.S.D.y.H.R.S.Q.A.o.r.w.B.A.C.y.B.L.S.W.Z.W.U.E.D.N.N.Q",
".8.8.8##.9.8.W.P.L.N.E.D.D.D.H.C.C.x.A.D.R.S.S.X.S.S.Z.7###b##.8.2.4.2.8.2.R.B.l.l.y.L.L.H.w.s.x.z.L.L.N.F.R.S.Z.1.Y.U.N.A.B.A.D.E",
".1.3.2.8.2.W.Q.L.L.L.L.L.D.D.C.w.x.x.s.y.N.Q.M.M.S.W.5###b#b.8.Y.U.U.1.1.S.B.k.b.l.B.L.L.E.y.A.C.D.L.M.P.U.Y.Z.2.3.U.N.y.s.w.w.w.w",
".S.W.1.Z.U.U.J.N.L.N.N.E.D.D.B.u.s.w.z.A.L.N.R.Q.S.Y.8###b.8.W.L.L.R.V.R.N.r.e.k.q.L.S.S.M.L.D.N.K.P.U.U.3.3.2.2.1.U.N.C.s.o.p.s.s",
".N.S.W.W.W.Q.N.L.L.L.E.L.A.z.w.p.o.w.D.H.N.R.M.L.S.W.2.8.2.S.L.w.D.N.S.M.D.p.l.q.D.W.1.U.M.L.L.H.L.Q.S.1.2.8.8.8.4.Y.O.I.z.s.s.q.w",
".N.X.Z.1.W.S.R.M.L.E.H.z.s.r.l.p.s.D.L.N.Q.Q.L.L.M.U.W.W.R.H.A.w.D.P.W.U.L.A.E.D.S.Z.Z.Y.Q.L.D.L.L.S.W.2.8#..9.9#..Z.S.L.s.q.p.s.s"
};
SIMPLE  =                    T                                                  BITPIX  =                    8                                                  NAXIS   =                    2                                                  NAXIS1  =                   65                                                  NAXIS2  =                   65                                                  HISTORY Written by XV 3.10a                                                     END                                                                                                                                                                                                                                                                                                                                                                                                                                                                                                                                                                                                                                                                                                                                                                                                                                                                                                                                                                                                                                                                                                                                                                                                                                                                                                                                                                                                                                                                                                                                                                                                                                                                                                                                                                                                                                                                                                                                                                                                                                                                                                                                                                                                                                                                                                                                                                                                                                                                                             phbeimlrytwÉà{ãåà}ypuuyyreiilw{}iiey{t}mbbauy}yymi^ZRSSRbmyàÑåààpmiiiupyyyty{Éåá}wplrymi^Z^my}pmr}åãÑ}ieeryywyume^ZZZaahoÉààÑmiebeevpyppt}}ÅÖàÉ{yplumaZVOZiyylplp{óìÑymmry}pniee]]^^eepsàáåààe]^Z^iuyyyyy}}swwàxpurrmiYVOOZaeeeemÅììãÅyytx{s}yrieab^]epxàZZZVSZiiypt}}}wssw{}lmmhmmbVVOVZ^a^Z^lÅããxyywàwÉyypllmbeaep{Å{}tSZOKKS^eytt}}w}os}wlf^eaelib^VOSZSSOSZm}xwlmu{á{Å{sxÅymibiet}ppuVZSOKORar}{}{t}ot}ylbZVRbmleeZSVVSVOOVZimmb^erwÑáà{wwà{riieytumi^^^ZVSZauy{{{}}{t}yleVKKVemmi]ZZSVSNVVV^e^ZSO^lÉáàÅ{Ñìå}umip}yme^bee^^]eu}ÉÉ{tÅttt}riZKGO^iieieYZVSSZZZZV^VOGVbu{{{{à{ãèÑÉlyÉÅÉyiS^aimlllw}ÉsxÉt}s{trbVKOVimmiib^Z^^]ae^^^ZOOOWipw}}à{ãÑwÉÉàãåyORbmyw{}ÅÉw{É}}}{{ÅtleZZ^eulmii]^baliimab^ZVVWalp}y}}ÅÑÑàÅàåóÉàKO^rsÖåàààxttw}}}}s{}uiihu}}peiaiirtwÉ}mib^^^biutyyptÅÅÅÅ}ÅåóèáDO^hs~ãÉãàÅwuiry}}t}s}tyuy}àspmmimpsãêÑÉli^]^imy}É}twsÉÉÉttpÉåìóOOZiyáãçìå}yiafmy}}t}{}wy}ååwolmmlpsêèãìwle^bamyÉÉÉtt{{x{}yytÅååYVV^mtãèóå}ieZZ^epyy}}w}ttÉàÑà}imimi}àáãó{oie^empttpyy}ÉààÉwyptwwbZZZelÅåì{År]VOO^iu}}ttw}w}Åà{ylieipr{àêì{smi^]emryumllxáÉ}pp}É^ZZZ^euÉàÉybZOKN^myppytyy}wtwra^^^imr}wÑworie^eierhbeiuÉååÅ}yp}ZVVSZbmytÉwpm^SKOZaeypwy}yyyruaZOOSVflly}tlriie^immmeVS^lÅèåàÉ}}}VOKOZempÅÉtyre^VOZ^irpypppyllibVK@GS]hllpppmiaiamuulbVKO^lÑ{ÉZOKOWbuÉàà{pumeZZ^biruprurhmmieSK@@KZielupupmiimlpt}l^OKSi}ÑÉ}iZOOSel{ÑÑÑtie]VZ^eimuprpieaab^ZOKGKZbeluruupiluy}ÉÅÅe^SOepxÑáàÉpaZVZbu}åãàpa]RNZ^emeleaYZVZ^e^ZOOVZ]hiplrulyyy}àÑÑ{lbbapwÑààÅ}leZ^eeyãÉ{leVOKKSeimleeZOKKOZ^ZVVZ^irprphyy}w}{{Ñå~}mlltÑãìåwuli^^bmu}àÅteZOD@KVemmebZK@@GOZZVNZ]mpyyyptt}ÅÅÉàáÑxtilyàèóìÑåÑee]^ZbimmyttlbWK@@@KSbimi^O@<@GKVOOSZilyppp}ÉÖààààÅ{peei{ãóãêåÑi]ZSVZeiemluieVKG@@@KS]iieZK@<@GKKKKOZmrrmlyÉÑÑååÉÉÉtmf]elÉáóìåÉabZVOV^bimeibWSOKD@@GKZeifbVK@<<@DD@GO^ieibiywêåÑÅÅ}yleZZ^pÉåÑxib]ZROZeeiii]ZOOOOOGGKOR]ia]VG@<<@@@@GOZ^YZVipàêÑáx}yimi^ZZbyÅÅ}yeeeb]b^ilhaae^ZSZe^ZOKKOZbieZOG@<@@@@GKSRZOOSayàÉà}yime]^^iittlmymfmeehiiprhia]]ieuueSKKOZ^bZVKG@<@@GKOOZSOKKVitÉàÅtulmmiaeer}ymÉtrrr}Éàxx}rmiimlwÅà}iROOS^^ZVODG@@GOVVZZZVKKKZpwt}pprmmhimr}àà{pÑtt}{åáììå}phllp}åìì{eZVR^eZVOKKDKOZ^^^^eVSOV^mytwypiilmmmr{ÑáãåÅsààååèèãtulry{ÑáïãÅme]eeeZVOOKSZamlmieb^^]iep{typyrlmierwwÄÖÑã{àÑÑáà{Ñ{yuyyÉàèáóìÅuaeembZOOOZ]hp}}lifimmltÅà{}pvyyreeiiÉãìàåwxsàãÉáà{ytumu}}ÉàÉóèÉpiyreeZVVZ]mwàplmrpt{àìåtyyyyrmaar}àààÅ}}Éàymiiielt{Åàåãåà{yyypa^ZZZ^myàåx{pyyÉx{ãáìàtyy}{yrmiimr}{ÉÉty}{}}rie^Z^biiwÉÅàÖ{É}pue]^ZRZbmwå{xÉàåÉãà{hrl}ÉÅ}uieeemw{É}}ypypebZSRVZ^mh}ÅwàÉÉyef^ZSRZ^bl{ààÉwÉàÑå~à}paearàÅtee^ZWwààtltypum^ZOVVVZ^apsÉàÅ}wliYVORZ^^iy{à|ÅåååspeYVO^m}àtl]ZSO{è~à}pyrue^ZOVSZVZ^my{àÉÉ{ym^SOOVZemu}wÅÅ{{{}uiYOG@GZlytebSOHåìåàÉtypymi^SZZ^^VSVit{ààà{}ybSOKOZ^hy}{ÉààwÉ}yi^OG@<<G^emi^VKGóãå{àÉtryrrib^beieVOZetÑÑåàtueSOOO^iy{Å{}ubVG@<<<GSeibZOKKèìÑÑ}pprprmmirmleSOZi}ÑÉìÑàà{}mbSKKV^uÉà{àxÉÉyu^O@<<<DO^iebZOKKì{áàÅ}tpplytpyytyr]ZOVeÅåèììå{ym^OKKViyàÑà{}}}piVG<<@KZelylbVKKãàs}}ÉÅ}yyyy}}{Å}{}hi^VbpåáèèèåÉtpmZOGKVeyÉw}}pyyueVG@DKZiwyeVO{{plytÉ}w}}}ÉwàÅÅ}tpmiel{Éóõçã}praZKGKZat}yyypprlbVKKOZi}åãåyeZ}ymiart}{}}ÅÉw{~wÅÉ{oymmrwãèèÑÉtyrmeVKKO^rpplhluuymeZVVZeyàÄãwpiyuiZ^ert{ÅÉÅáååÑÉÉààxohuyãåÑÅpumei^VSZbmrpmieemulhaYVV]etàÑìt}ri^S^aptÅààÑååàtt}xààà{rrpw{splmiiiib^bmp}}liaamemimib^^ae{ÑÑÉ}trbYVem}wåá~åáàÉ}yv}á{w}ummullib]aemameyx{åÅiibimlllea]beewÉåãÑ{xllabim}wàåÑÉáÉtlmrpÑà{yab]]b^Y^bamlmp}~Éìåtrieiiiemeaiir}xáåÉ{}ymimuÑãåèå{yliietwåÑ{lbRVRZV^bamrrp{wóèìpmfiimimhfaal}ååããà{wylemy~ååååÑÉyeibiitàåáÅrYOJOR^ealryy}såìãÅymaiahemiibbm{åóãèàÉyrieirÉá~åàåÉyhi^bip}åãÑ{pRKOO^bhpyyytoÅà{paeeaieia]RZ^làóóóÅymbZ^ep~ÉÅÉ{É{yuieeempÉåãå}eRKKZeeyt}}tpt{}ui^ZZ]iiieVRKO^uÑèó{ym^VSVeyt}yup}}{ymiiiey}àÑêÑtaSGOVitÅxt}t}wyrbSOVZbiea^VK@GZuáã{wum^VOOSbemieamywwyrmmhuyÅåã{oiVGO^r}ÉÉÅ{twyrbVOKVViiiiZO@<K^r{}piebZSOOZ]e]ZVZip}tllhmuyy{àÑ{wpeOGO^l}ÉÉ}ovh^SOS^eaiibRK@@KZmspeaaeZSSSV^ZOKOZayprilrryit{ssrZODOep{àÖÉ}yre]ZZ^immiibVKGGO^}peaab^ZZZ^^ZSKKVemrremmulvyyp}x{l^ODSbtàããåà}puaebieeleaaaZVOOV}yreeib^^^^b]ZSOS^mlmmaehrppphtts{tueOGSeÉÑóìèÅ}pmiimrpylmmmi]ZVV}yyimbe^^^eaieZZ^auyymbbillyrmipo}xtm^OKZuêèìÅumbbip}{puerlmi^Z}}yuib]^^^^aaa]ebr}{}ymiilrruuilpp}ppa^SO^lãóìàpi^^]myyplmluvlme}pmab^VZZ^^bbb]irÅ{Ñ{ymlryyyuerrpyypmbYVV]uàãìá}l^VZbeurhiamy}pmÅym]^ZSRZ^beab]^e}åìáw}ry{}thrmpypyrlfeZORepàååÉyaZOZeea]ZZeeywy                                                                                                                                                                                                                                                                                                                                                                                                                                                                                                                                                                                                                                                                                                                                                                                                                                                                                                                                                                                                                                                                                                                                                                                                                                                                                                                                                                                                                                                                                                                                                                                               