/* XPM */
static char *clu[] = {
/* width height num_colors chars_per_pixel */
"    35    20      237            2",
/* colors */
".. c #ffffff",
".# c #a276a9",
".a c #76567b",
".b c #c590ce",
".c c #bd8ac5",
".d c #433146",
".e c #553e59",
".f c #9c72a3",
".g c #5e4462",
".h c #7d5b82",
".i c #a679ad",
".j c #c791d0",
".k c #af80b7",
".l c #a77aae",
".m c #926a98",
".n c #bf8cc8",
".o c #ac7eb4",
".p c #725377",
".q c #896390",
".r c #b987c2",
".s c #c5bec6",
".t c #87638d",
".u c #ba87c2",
".v c #b483bc",
".w c #6b4e6f",
".x c #a198a3",
".y c #c892d1",
".z c #c18dca",
".A c #fafafa",
".B c #a277aa",
".C c #9d939f",
".D c #9d73a4",
".E c #8b6492",
".F c #6f5174",
".G c #ab7db2",
".H c #b685be",
".I c #7e5c84",
".J c #a578ac",
".K c #85618b",
".L c #8d858f",
".M c #644969",
".N c #725477",
".O c #79577e",
".P c #5c435f",
".Q c #4e4150",
".R c #402f44",
".S c #2a1e2c",
".T c #5a415e",
".U c #b685bf",
".V c #bb89c3",
".W c #130e14",
".X c #4a354d",
".Y c #825f88",
".Z c #5f4563",
".0 c #bc89c4",
".1 c #654a6a",
".2 c #88648f",
".3 c #77577d",
".4 c #966e9d",
".5 c #664a6a",
".6 c #986f9f",
".7 c #58405c",
".8 c #4c3850",
".9 c #1d171e",
"#. c #6c4f71",
"## c #926b99",
"#a c #9970a0",
"#b c #815c87",
"#c c #49354c",
"#d c #8c6692",
"#e c #946c9b",
"#f c #261b28",
"#g c #916997",
"#h c #7b6c7d",
"#i c #5d4461",
"#j c #976e9e",
"#k c #805e85",
"#l c #2d212f",
"#m c #7f5c84",
"#n c #5b4260",
"#o c #9f74a6",
"#p c #614665",
"#q c #3e2c41",
"#r c #c691cf",
"#s c #221823",
"#t c #b081b9",
"#u c #7a587f",
"#v c #1a131c",
"#w c #543d58",
"#x c #f5f4f5",
"#y c #6a4d6e",
"#z c #aa7cb1",
"#A c #815e86",
"#B c #9e73a4",
"#C c #47344a",
"#D c #ab7db3",
"#E c #b282ba",
"#F c #8a6590",
"#G c #604764",
"#H c #c08dc9",
"#I c #c28ecb",
"#J c #0f0910",
"#K c #c7c3c8",
"#L c #735579",
"#M c #3d2d3f",
"#N c #e4e3e4",
"#O c #8e6794",
"#P c #86628c",
"#Q c #74557a",
"#R c #614765",
"#S c #503854",
"#T c #fdfdfd",
"#U c #c992d2",
"#V c #453248",
"#W c #eec9f2",
"#X c #7f5b85",
"#Y c #533c57",
"#Z c #b786bf",
"#0 c #f3f3f3",
"#1 c #906996",
"#2 c #674b6c",
"#3 c #4e3751",
"#4 c #e8e6e9",
"#5 c #a175a8",
"#6 c #b5b0b6",
"#7 c #dddbde",
"#8 c #77577c",
"#9 c #996f9f",
"a. c #b484bd",
"a# c #735378",
"aa c #4e3951",
"ab c #6f6570",
"ac c #87628d",
"ad c #b886c0",
"ae c #694d6e",
"af c #443146",
"ag c #634867",
"ah c #8e6894",
"ai c #a277a9",
"aj c #c18bc9",
"ak c #513b55",
"al c #705275",
"am c #5f4564",
"an c #77537d",
"ao c #694c6e",
"ap c #57405b",
"aq c #a679ae",
"ar c #c48ecd",
"as c #77567c",
"at c #c38ecb",
"au c #8d6693",
"av c #634868",
"aw c #251b26",
"ax c #c68fce",
"ay c #946b9a",
"az c #322535",
"aA c #7a5880",
"aB c #936b9a",
"aC c #6e5073",
"aD c #b584bd",
"aE c #0b060c",
"aF c #ba88c2",
"aG c #aa7cb2",
"aH c #89648f",
"aI c #c692ce",
"aJ c #694e6e",
"aK c #624666",
"aL c #c893d1",
"aM c #8e6795",
"aN c #fefefe",
"aO c #84608a",
"aP c #835f89",
"aQ c #362638",
"aR c #9b71a2",
"aS c #a97bb0",
"aT c #7c5a82",
"aU c #554059",
"aV c #af80b6",
"aW c #79587f",
"aX c #88628e",
"aY c #181019",
"aZ c #78577d",
"a0 c #edddf0",
"a1 c #b0acb0",
"a2 c #d09cd8",
"a3 c #beb8bf",
"a4 c #a176a8",
"a5 c #eaeaea",
"a6 c #684c6d",
"a7 c #b383bb",
"a8 c #624867",
"a9 c #c38ecc",
"b. c #e7e5e7",
"b# c #75557a",
"ba c #3b2b3e",
"bb c #513b54",
"bc c #775e7b",
"bd c #ad7fb5",
"be c #9b8d9e",
"bf c #b081b8",
"bg c #966d9d",
"bh c #a678ad",
"bi c #a377aa",
"bj c #a67aae",
"bk c #563e59",
"bl c #533d57",
"bm c #b987c1",
"bn c #715376",
"bo c #a477ab",
"bp c #be8bc7",
"bq c #7d5c83",
"br c #b988c2",
"bs c #6e5174",
"bt c #9d72a3",
"bu c #a579ac",
"bv c #bd89c5",
"bw c #be8ac6",
"bx c #c791cf",
"by c #a97bb1",
"bz c #c891d2",
"bA c #c892d2",
"bB c #ac7cb3",
"bC c #615e62",
"bD c #745479",
"bE c #86628d",
"bF c #835f88",
"bG c #362839",
"bH c #825e88",
"bI c #9a71a1",
"bJ c #a87bb0",
"bK c #966d9c",
"bL c #120d12",
"bM c #342636",
"bN c #ad7eb4",
"bO c #8b898c",
"bP c #8b6691",
"bQ c #b080b8",
/* pixels */
".....................A#N.s.s.C.xbe.x.x.s.sb.#xaN......................",
"...............A#7#6bcaJasanaX.E.q.E.qanaA#L#L.L.s#4..................",
"...........Lbl.1.3aO#9.#.kaD.V.0.c.r#Z.kaG.D.4#O#m.aaK.g#6#N..........",
"......#0bO.8.g#8aPah.BbN.u.n.b#r#UaL#H.Ubf.#bI#g#AaZ.w.5.T.Z.L........",
"......#f.d.T#R.F#u#P#5.o.0#I.j.ya2a2bp.v.o.f##ac.p#2.ebbak.e#n#p.C....",
".....Cba#C.7.gag.w#8.6.i.U.c.z#H.nbm#Z#D.JaB.q.h.1.7.d#M.d.8apaeao#T..",
"#TbC#v.d.8.T.gam.P#w.O#ebi.l.lbh.#bt#j#1aXaWalag#CbM.WbL.d.e.MaA#kb#b.",
"#4.9#safaa.P#R.Mav#p.Tbs.m#j#gauaHbH.haZb#aea8bk.S.W.W.S.P.w.abE#F#X.x",
"#h#Jaw#Vaa.Z.1aC.p#L.a.aal.w.1.g#GabbcabaU#3aa.ea6.NbF.2#e.6.D.#.#.6ac",
"ab#Jawafaaam.5bn.aaW.I#k#A.Y#k#k#maA#u.3aTaP#P.taM##bI#o.iaS.G#D#z#BaM",
"bOaE.9#q.X#i.5a#.O.I.tbP.m#e#aaR#Ba4.#aqbJ#DaVbf.v.H.r.V.c.c.cbm.vbi#e",
"b.aY.WbG.d.7#p.F.3bqaHah.4aRai.iaSaV#taDad.0bw.nar.b#r.jbx.bat.V.Ha4.E",
"aNbCaEaz#M#w#i#.#QaA.taubgaRbi.l.G#t.v.r.0ajaxbz.y.y#U#U.j.bat.ua7.f#b",
"....#h.9#l#CbbaK.w.p#k#P.m.4#oboaS.ka7aFaI#Wa0#W#U.j#r.b#I.n.VaVaq#b#6",
"....a5.W#s#q#c#n.1#.aA.Yau##aR#5.J.obQ.UbrarbA.ba9a9#I.zbv.ua..i.f.t#x",
"......a1.9#fbM.Xbl.P#.a##m.K#1#e#a#5.J#Dbd#E.v.v.H.Ha7#t#z.i#B.2a#....",
"........#K.Waw#q#cak#Rae.a.h.t#d.m#a.faibu#zbB.obd#Dbybj.D#j#O.F.x....",
"..........#x.xaY#faQ#c#Y#G#2a#.3.h.K#F#1.may#ebKbgaBauaHasao#h........",
"..............a1.Q#vaz#qaaapa8a6aCb##u#k#AaOaOaO.Y.IbD#y#ha3#0........",
"....................#Na1.R#f#laQ#q.X#3#w.e#S#S.8bl#h#4aN.............."
};
SIMPLE  =                    T                                                  BITPIX  =                    8                                                  NAXIS   =                    2                                                  NAXIS1  =                   35                                                  NAXIS2  =                   20                                                  HISTORY Written by XV 3.10a                                                     END                                                                                                                                                                                                                                                                                                                                                                                                                                                                                                                                                                                                                                                                                                                                                                                                                                                                                                                                                                                                                                                                                                                                                                                                                                                                                                                                                                                                                                                                                                                                                                                                                                                                                                                                                                                                                                                                                                                                                                                                                                                                                                                                                                                                                                                                                                                                                                                                                                                                                             ˇˇˇˇˇˇˇˇˇˇ‰™;"&.5?BHIDEAHuÊ˛ˇˇˇˇˇˇˇˇˇˇˇˇˇˇ∞G+5DKUZ_einpsrrqmd\t∑ÛˇˇˇˇˇˇˇˇˇÙû .?GSYcglsx}~ÄÅÇÇÄzwg[rˇˇˇˇˇˇˇˇ«4?FT[fluy~ÖàçêîïññïìëâÉ{`üˇˇˇˇˇ™ -?HO^dns|ÅÖåèïóõúúûûõöîêâvcˇˇˇˇÏ5?OX^jpzáåèñôû°™Æ´©©©®§°ùëàyıˇˇy'<FU]cot~Éãéìòú¢¨‡Áÿ∞≠¨¨©¶£òêpØ˛_	)5HQ^ekuzÇáéëïôú°§ß´ÆÆÆÆÆ≠¨©°úàoÊ/9LT`gmw{Éáçêìòöù†£•¶™´¨≠≠´©£ûåyä6@QXdimuy~ÅÖáâåçêíïóôùû°£§§§°ùéÄh :CRYbfimopqoonjigkqtv{Üäêìîïîâ{{ ;DRX`ceffa]XQSfkgJCCJZcqwÅÑâççÑtË:CPTWVTN`~Ñ~zwplhe[UJ$$P\fuxnû˝]9BNQROIiÅéëëêçàÉ|viaV=,:JWjne‰ˇˇï2>LQV\gÑêû§®ß¶†üïèÄwlXM:5:BL[[˚ˇˇˇˇ!:MT`jtãñ£©≠Æ¥∫•úñàucYJFFJOTòˇˇˇˇˇÛäBQgq{çñ°¶´¨ØØßûôçÜ}ph]XNRãˇˇˇˇˇˇˇˇˇàHWgrÑçòù¢£§°üòîâÉ{nfUQµ‡ˇˇˇˇˇˇˇˇˇˇˇˇ˙ÿ≤k\gfuxwxwejefà¬Ëˇˇˇˇˇˇˇˇˇˇˇˇˇˇˇˇˇˇˇ˘„¬¡òúêúõ√øÊı˝ˇˇˇˇˇˇˇˇˇˇˇ                                                                                                                                                                                                                                                                                                                                                                                                                                                                                                                                                                                                                                                                                                                                                                                                                                                                                                                                                                                                                                                                                                                                                                                                                                                                                                                                                                                                                                                                                                                                                                                                                                                                                                                                                                                                                                                                                                                                                                                                                                                                                                                                                                                                                                                                    