/* XPM */
static const char * cont_icon[] = {
/* width height num_colors chars_per_pixel */
"    16    13        4            1",
/* colors */
". c #000000",
"# c #c0c0c0",
"a c #666666",
"b c #cccccc",
/* pixels */
"################",
"################",
"##..####..######",
"##...###...#####", 
"##....##....####",
"##.....#.....###",
"##............##",
"##.....#.....###",
"##....##....####",
"##...###...#####",
"##..####..######",
"################",
"################"
};
