/* XPM */
static char *griffen[] = {
/* width height num_colors chars_per_pixel */
"    75    75      211            2",
/* colors */
".. c #040204",
".# c #84827c",
".a c #c4c2b4",
".b c #44423c",
".c c #e4e2d4",
".d c #a4a294",
".e c #5c625c",
".f c #f4f2e4",
".g c #24221c",
".h c #b4b2a4",
".i c #d4d2c4",
".j c #949284",
".k c #6c726c",
".l c #4c524c",
".m c #eceadc",
".n c #f4faec",
".o c #34322c",
".p c #0c120c",
".q c #acaa9c",
".r c #dcdacc",
".s c #cccabc",
".t c #bcbaac",
".u c #9c9a8c",
".v c #8c8a7c",
".w c #6c625c",
".x c #7c7274",
".y c #5c524c",
".z c #fcf2e4",
".A c #3c3a34",
".B c #4c4a44",
".C c #f4eadc",
".D c #0c0a04",
".E c #e4e2e4",
".F c #dcd2c4",
".G c #1c160c",
".H c #b4aaa4",
".I c #ccc2bc",
".J c #242a24",
".K c #bcb2ac",
".L c #9c928c",
".M c #fcfaec",
".N c #d4cabc",
".O c #c4bab4",
".P c #a49a94",
".Q c #948a84",
".R c #6c6a64",
".S c #7c7a74",
".T c #5c5a54",
".U c #8c827c",
".V c #e4dad4",
".W c #ece2d4",
".X c #646a64",
".Y c #f4f2f4",
".Z c #3c3234",
".0 c #1c1e1c",
".1 c #fcfafc",
".2 c #847a74",
".3 c #645e54",
".4 c #c4c2c4",
".5 c #4c4244",
".6 c #aca29c",
".7 c #64625c",
".8 c #b4b2b4",
".9 c #949294",
"#. c #74726c",
"## c #545a54",
"#a c #eceaec",
"#b c #acaaac",
"#c c #bcbabc",
"#d c #9c9a9c",
"#e c #8c8a8c",
"#f c #fcf6f4",
"#g c #443e3c",
"#h c #544e4c",
"#i c #f4eeec",
"#j c #342e2c",
"#k c #746e6c",
"#l c #0c0604",
"#m c #84867c",
"#n c #f4f6e4",
"#o c #54524c",
"#p c #cccecc",
"#q c #fcf6e4",
"#r c #f4eedc",
"#s c #aca6a4",
"#t c #dcd6d4",
"#u c #241a1c",
"#v c #b4aea4",
"#w c #2c2a24",
"#x c #fcfeec",
"#y c #d4cecc",
"#z c #6c6e64",
"#A c #7c7e74",
"#B c #5c5e54",
"#C c #e4dedc",
"#D c #64665c",
"#E c #74766c",
"#F c #040604",
"#G c #c4c6bc",
"#H c #444644",
"#I c #e4e6dc",
"#J c #a4a69c",
"#K c #242624",
"#L c #b4b6ac",
"#M c #d4d6cc",
"#N c #94968c",
"#O c #eceedc",
"#P c #141214",
"#Q c #acaea4",
"#R c #dcdedc",
"#S c #cccec4",
"#T c #bcbeb4",
"#U c #9c9e94",
"#V c #8c8e84",
"#W c #6c665c",
"#X c #3c3e3c",
"#Y c #0c0e0c",
"#Z c #ece6ec",
"#0 c #a4a6a4",
"#1 c #dcd6cc",
"#2 c #1c1a1c",
"#3 c #ccc6bc",
"#4 c #241e1c",
"#5 c #5c5654",
"#6 c #1c1a14",
"#7 c #bcb6ac",
"#8 c #9c968c",
"#9 c #d4cec4",
"a. c #c4beb4",
"a# c #a49e94",
"aa c #948e84",
"ab c #8c867c",
"ac c #e4decc",
"ad c #ece6dc",
"ae c #3c363c",
"af c #847e7c",
"ag c #545654",
"ah c #2c2e2c",
"ai c #7c7674",
"aj c #e4e6e4",
"ak c #f4f6f4",
"al c #fcfefc",
"am c #4c4644",
"an c #aca69c",
"ao c #b4b6b4",
"ap c #949694",
"aq c #acaeac",
"ar c #bcbebc",
"as c #9c9e9c",
"at c #8c8e8c",
"au c #140e0c",
"av c #141614",
"aw c #848284",
"ax c #c4c2bc",
"ay c #444244",
"az c #e4e2dc",
"aA c #a4a29c",
"aB c #f4f2ec",
"aC c #242224",
"aD c #b4b2ac",
"aE c #d4d2cc",
"aF c #94928c",
"aG c #eceae4",
"aH c #343234",
"aI c #acaaa4",
"aJ c #dcdad4",
"aK c #cccac4",
"aL c #bcbab4",
"aM c #9c9a94",
"aN c #8c8a84",
"aO c #fcf2ec",
"aP c #3c3a3c",
"aQ c #4c4a4c",
"aR c #f4eae4",
"aS c #0c0a0c",
"aT c #dcd2cc",
"aU c #fcfaf4",
"aV c #d4cac4",
"aW c #6c6a6c",
"aX c #7c7a7c",
"aY c #5c5a5c",
"aZ c #ece2dc",
"a0 c #645e5c",
"a1 c #646264",
"a2 c #747274",
"a3 c #848684",
"a4 c #f4f6ec",
"a5 c #545254",
"a6 c #343634",
"a7 c #fcf6ec",
"a8 c #4c4e4c",
"a9 c #f4eee4",
"b. c #b4aeac",
"b# c #2c2a2c",
"ba c #fcfef4",
"bb c #6c6e6c",
"bc c #7c7e7c",
"bd c #5c5e5c",
"be c #646664",
"bf c #747674",
"bg c #04060c",
"bh c #6c6664",
"bi c #a4a6ac",
"bj c #ccc6c4",
"bk c #bcb6b4",
"bl c #9c9694",
"bm c #c4bebc",
"bn c #a49e9c",
"bo c #948e8c",
"bp c #8c8684",
"bq c #e4ded4",
/* pixels */
"alalalalalalalalalalalalalalalalalalalalalalalalalalalalalalalalalalalalalalalalalalalalalalalalalalalalalalalalalalalalalalalalalalalalalalalalalalal",
"alalalalalalalalalalalalalalalalalalalalalalalalalalalalalalalalalalalalalalalalalalalalalalalalalalalalalalalalalalalalalalalalalalalalalalalalalalal",
"alalalalalalalalalalalalalalal.1alalalalalalalalalalalalalalalalalbaakalalalalalalalalalalalalalalalalalalalalalalalalalalalalalalalalalalalalalalalal",
"alalalalalalalalalalalalalalal#V.9alalalalalalalalalalalalalal.MaRaz#talalalalalalalalalalalalalalalalalalalalalalalalalalalalalalalalalalalalalalalal",
"alalalalalalalalalalalalalal..#Fb#alalalalalalalalalalal.1al.VaO#IaI#zalalalalalalalalalalalalalalalalalalalalalalalalalalalalalalalalalalalalalalalal",
"alalalalalalalalalalalal.1#F.Aa6..alalalalalalalalalalalaBbq.caZaUaNaNai.1alalalalalalalalalalalalalalalalalalalalalalalalalalalalalalalalalalalalalal",
"alalalalalalalalalalalalalae#6#oahalalalalalalalalalalalbqad#9#Aad.a.6a##N#i#y.Vbqbq#ta..HaL.1alalalalalalalalalalalalalalalalalalalalalalalalalalalal",
"alalalalalalalalalalalalal#o#wa8aealalalalalalalalalalaz#1.V.m#9.caBbqbj#tac.Vba#xa9#I#t#SblaMalalalalalalalalalalalalalalalalalalalalalalalalalalalal",
"alalalalalalalalalalalalaX#D.o.T#Xalalalalalalalalal.Ibq.V#9aJa7aKada7aK#v#9#R#8aQ#X.b.T#H.0#Falalalalalalalalalalalalalalalalalalalalalalalalalalalal",
"alalalalalalalalalalafal.T#..b.7#XaCalalalalalalalal#9#9.caEaxa9.hbcaL.rbo#M.iaa#i.cbj#kaUaRaRa9aEaIalalalalalalalalalalalalalalalalalalalalalalalalal",
"alalalalalalalalalala9#R.R.Sa8a0#X#oalalalalalalalalaE#9adaGa6bq.k....ax.x.sa.bqad#J#.a7a7.fa7aBa7#1#sbaalalalalalalalalalalalalalalalalalalalalalalal",
"alalalalalalalalalaZaUbnbb.S.7.Ra8.Ta2alalalalalalalaT#MaJbqbn#G#A#uaSanbd.I#Ga9baa7a7a9a7.zaBa7a9aJaLaMalalalalalalalalalalalalalalalalalalalalalalal",
"alalalalalalalalalaK.Fa9.#bf#B.Rbe.7.7alalalalalal#vbmaJ#7#R#8.tbnaa.r#U#gaL#1bqa9#i.f#O#ia9aGa9#I#1.IaA#kalalalalalalalalalalalalalalalalalalalalalal",
"alalalalalalalalalaxa4a7aR#.bb#E#kbh.T#paGa9aE.1al#J#7#9#7.rambj#Abh#S..anbq#CbqaJ#C.Vaz#CaZ.cad.V#9aLaAa3alalalalalalalalalalalalalalalalalalalalalal",
"alalalalalalalalalala7#1#Oa2#kbf#.#E#.b.aI#JaT.Vbn#vaI#1aD.r.K#3axbq.V#T#9.r#1bjaD#Ga.#3aK#1#yaK#9aK#7aA.Sa8alalalalalalalalalalalalalalalalalalalalal",
"alalalalalalalalalalaI#ia.#z.R#.#kbf#AaFag#2a8#vap.h#vaEanaEb.aKaJadbq#9#1.raEa..2....aHaIaxa.bjaKa..KaA.#a5alalalalalalalalalalalalalalalalalalalalal",
"alalalalalalalalalal.6ana9.#bf.S#E.RafaN.o.Saf#Vat.Za##M.HaE.O#9#9aR#CaT#1#1aKaL#QaD#vaAau#ob..aa.aDaIaMbc#oalalalalalalalalalalalalalalalalalalalalal",
"alalalalalalalalalalal.r..as.#aNbc.R#mbc#HaNbq#Jbp#Kbn.ibk#9axa..iaT#Mbq#MaVaKbk#QaA.uat#Va3..........avbo#balalalalalalalalalalalalalalalalalalalalal",
"alalalalalalalalalalalalbm#I.##BaN.#bb#.#EaF#mbl.7#wbm#9aEaK.K.K#3#9aE#9aE.Iara.aI#sbe#PaS.0.galalalalalalalalalalalalalalalalalalalalalalalalalalalal",
"alalalalalalalalalalalalal#FaN#ma3aN#zaFas.H#U#HaSakaE.a#Ca.#vaLar#3#3#y.abjaK.K#J.#bda6..#Y#P.Ealalalalalalalalalalalalalalalalalalalalalalalalalalal",
"alalalalalalalalalalalalalalalaN.T#V.S#.aI#vbmalalal.NaIbq#saAaL.a#7ax#3ax.I#3bkaI.6bo#8bc#X#F#2alalalalalalalalalalalalalalalalalalalalalalalalalalal",
"alalalalalalalalalalalalalalalaFabblaN.7bpaLaDbjalal......#9aFbkbkaLaL.IaLaKaKbm#9aLb.anaN#.aW.0alalalalalalalalalalalalalalalalalalalalalalalalalalal",
"alalalalalalalalalalalalalalalal#8.Tbk#8ag.W#3aJaMal....aKa9bc.HaL.OaLbk#3ax.Ia.axa.anapaN.7agb#alalalalalalalalalalalalalalalalalalalalalalalalalalal",
"alalalalalalalalalalalalalalalalaTaA#s#3#3bpbma.a9#v..#3#L.Wad#7.hafaD.Kbkaxa.bkaxb..##mafaQ#X#2alalalalalalalalalalalalalalalalalalalalalalalalalalal",
"alalalalalalalalalalalalalal.1#NaNaa#NaN#m.S#I#1#Sa7#b.o#e....#saM.baDaIaA#7.K#JbnaIbeaNbfav#w..alalalalalalalalalalalalalalalalalalalalalalalalalalal",
"alalalalalalalalalalalalalalal#c.#aF.#aN#m.Sa8a9aTaza9.tbc.....Bbe.gbm.q.g#v#sbe#vap#h#ma1..aCalalalalalalalalalalalalalalalalalalalalalalalalalalalal",
"alalalalalalalalalalalalalalalad#m#U#s#6bfbo.K.OaJ.iazad.Hat..#7..aM.tap#laLaI#Xb.#V.0a5#F..asalalalalalalalalalalalaUbpaA.Paqalalalalalalalalalalalal",
"alalalalalalalalalalalalalalaUa3#V...la3#jaxb.aAaU#3bqa9#Mab.#b.#7#v#Fbg#Ja3a1...SaP..bg#Fav#2alalalalalalalal.1alanax#1aJaKad.H.##falalalalalalalalal",
"alalalalalalalalalalalalalalal#aai.OaKax.Obn.PaA.aaRaGaGaObj.SaAb.aDaxaL.K.J#FaFbe...7bh.B#P.0alalalalalalalalaUbk#1bqbq.fa9aL.f.fbqaxaOasalalalalalal",
"alalalalalalalalalalalalalalal.IaAaMaL#7aIaAa##vbhaB.sad.f#IaMbf#7aD.H#7aDa.#7#7.Ha##N.S.TagaHalalalalalalalal.6b.#Q.I.saEaz.m.f.OaUaRaJ.Ralalalalalal",
"alalalalalalalalalalalalalalbnaAanaA.UaL#sa#aIbja.bqaTaGbqa7bm#E.Rbkb.aDb.aD.Kb.aIbn#Vbf#BaY#Halalalalalalalbb.s.faf#U#vaVaEbqaz.Mafaz#D.balalalalalal",
"alalalalalalalalalalalalalalal.d.H.qaza.aIaF#WaL.O#L#iaLbqad#9bc#5#Q#7#vaDb.#LaIanaAbl.v#k.7aYalalalalalalal.B.R#L#Ma5.7aAa.axaVaZ.l#3.b#Balalalalalal",
"alalalalalalalalalalalalalalalalaGbqbqaEbm..a.bm#7b.aJanaEaJaTaNa8.Kbkb.#L.Hb.aIa#aAa#aFbc.S#W.8alalalalalala0.B#H#F#FalaS#A#saL#L#jaMaGaXalalalalalal",
"alalalalalalalalalalalalalalal#1.saEad#I.5aK#7.sad#8aKaF.saTaKata6#T#3#7#vaAaAbn.6aIbnaM.j#Abfa1alalalalalbe#.ag....#Palalal...#bf#GaHawalalalalalalal",
"alalalalalalalalalalalalalalaV#1.r#yboav.c.maxaVa9aF.KaWbmaKaLbh#K#3a.ax.KaIa#anaD#Q.H.Pbn.P#m.R#kbm#.alaU#..Sa8....#Falalalalalal.4alalalalalalalalal",
"alalalalalalalalalalalalalalalalan#1.iaZaGaR.hbjadaFaMa8.t.I#QaQ#w#R#t.iax#s.H#Qb..H#J#JaAaM#V.R#waU.c#tbf.Sbcb#....alalalalalalalalalalalalalalalalal",
"alalalalalalalalalalalalalalalalaEazbqbq#r.caBaE.fbpa3.Gbmaobb#Pavbq.raZ.m#1aqbna#asa#aM#NaF.#bd.0adaG.V#Aaibf.g#H#Palalalalalalalalalalalalalalalalal",
"alalalalalalalalalalalalalalal#1bqad#Z.s#9aUaRaZ.M#p..aMb.a3#l..#waZaZaBadadaK#7#v#Q#saMaMbcaWay#F#1ax.Iat#.#X...A#Kalalalalalalalalalalalalalalalalal",
"alalalalalalalalalalalalalalal.radaz.faRaOa7#Oad.Dazad#w....#GaUbm.caG.Va9adad#3bk#v#J#Ubo#Ebd#X..#7.uanbpbe#Y.bavalalalalalalalalalalalalalalalalalal",
"alalalalalalalalalalalalalal#y#d.A..aUa9.fa9aGaBa9.za9.Ta7a9.MaU#nbqa9a9adaG#1aK#QaAaAblbca0a5.A#Fbl#NaI#E#oaQa8aSalalalalalalalalalalalalalalalalalal",
"alalalalalalalalalalalalalal.H#m#waOa9a7#q.EadalaU.C#Rba.faBa7aU.MaTaza9aZad#1#3#sataf#A#..T.Ta6#obf.SaF.##hbd#jalalalalalalalalalalalalalalalalalalal",
"alalalalalalalalalalalalalal#Q.Savada9a7aA.faBbka9.f#wa7a7..aOba..bqbqadadaZaEaxbn#mbf#..R.7agah#kbe.Ra1aW.eaQavalalalalalalalalalalalalalalalalalalal",
"alalalalalalalalalalalalalal#saWaCa7#rbqa7aUadaBaO.Mbaa7.z..aA..#l#3azadbq#I.i.O#V#A.7.Rbe.7a5#w.J#l#Y#2ayaC..aXaXalalalalalalalalalalalalalalalalalal",
"alalalalalalalalalalalalalalaI#D#Kalala7#x.Pad#xba.M..aU#n..bdaI#T#3#1az#MaT#9aIbc.Ra5.T#5bdag.0aXaXaXaXaXbfaXbfaXbcaralalalalalalalalalalalalalalalal",
"alalalalalalalalalalalalalalbn#A#jalala7.n#v.f.Dalal...0al....#m#7bjaK.iaT#9bm#J.R#DaQ#w.laQ#waXaXbfaXbfbcaXaXaXaXaXaXawalalalalalalalalalalalalalalal",
"alalalalalalalalalalalalalal.K.Say.1al.L#T#3bia.aq........#F..bb#vaL#1aK#9.a#Tbn#ka8aP..#2..aXbfaXaXbcaXaXbfaXbcbfaXbfaX#balalalalalalalalalalalalalal",
"alalalalalalalalalalalalal.1b.#Ubh#KalafaD#s..a7#F..aM..........#sax#7.Ibja.aI#V.RaQ#KaXbfaXaXaXbfbcbfaXaXbcaXbfa3aXaXbfalalalalalalalalalalalalalalal",
"alalalalalalalalalalalalalalaI#7a3.B.1.#boaIbma7..a9.r..#F#Yb#..a##7bkaLaxaIbn.S.T.B#KaXaXbcbfbcaXaXaXbcbfaXbfawalalalalalal.1.1alalalalalalalalalalal",
"alalalalalalalalalalalalalalaqbja.#Vaeax#EaF#7aza7baaR.sbn#EaH..aF.KaLaL#7bk#8#.bdaya8aXbfbcaXaXbfbcbfaXaXaXbfalalalalalaXaXaXaXaXaXaX.1alalalalalalal",
"alalalalalalalalalalalalalalalaVbq#3aN#H#.#.#Na.aza7aBaO#G.u.Bbf#V#0.O#vaD#JaN.Rag.baXbcaXaXbcbfaXaXaXaXbcbfaXaXaXap#saXaXaXbcbfaXaXaXbcaKalalalalalal",
"alalalalalalalalalalalalalalal#s#IaG.r#8.SaY.##vaEa9aObabqbmaW#F.R#UbkaAaDas#Vbb.T#HaXbfaXbfaXbcaXbfbcbfaXaXaXaXaXaXaXbfaXaXbcbfaXbfbcbfalalalalalalal",
"alalalalalalalalalalalalalalalal#y.Madad.S#Da6a3.O#R.C.fa9#3bfaH..#NaAaA#7#Ubp#Ebh#HaXaXaXbcaXaXbfbcaXaXaXbcbfaXbfbcbfaXbfalalalbcawbca2alalalalalalal",
"alalalalalalalalalalalalalalalalbfazbaadbebeam#EaI.s.VadaG.FaNaH..#.bc#U#saMataf.RagaXbfbcbfaXaXbcaXbfbcbfbcaXbcbcbcaX.1alalalalalajatalalalalalalalal",
"alalalalalalalalalalalalalalalal#f#NaTaEaFbh#o.AabaDa.#3#1aDbb.J..#2bp#N.PaA#8#Abb.TbfaXawbcbfaXbfaXaXbcbcalalalalalalalalalalalalalalalalalalalalalal",
"alalalalalalalalalalalalalalalalalalbf.6#Va1#Ha6.7aFaMbn#Uaw.B#K....#FataFanaMaN#k.Rah#F..bfbcaXbcbcbf#dalalalalalalalalalalalalalalalalalalalalalalal",
"alalalalalalalalalalalalalalalalalalalalagay#K.....k#.bb#.ag#Y........aW#VanaAas.S#.a8....#FaXaXbfalalalalalalalalalalalalalalalalalalalalalalalalalal",
"alalalalalalalalalalalalalalalalalalalalal.YaXbc#.a0.T#H#j..............a3aIanbl#V.#bd......##bca2alalalalalalalalalalalalalalalalalalalalalalalalalal",
"alalalalalalalalalalalalalalalalalalalalalalalalaM.Xay#2..beaw#F........#7aMan#LaM.##..0....afbfalalalalalalalalalalalalalalalalalalalalalalalalalalal",
"alalalalalalalalalalalalalalalalalalalalalalalal.O.#......#YbfaXbfbf....aEafaIaD#JaF#k.l...0#Fbcalalalalalalalalalalalalalalalalalalalalalalalalalalal",
"alalalalalalalalalalalalalalalalalalalalalalal.1#Ua7aB.s#Qat#k.lbcbfaXbfaQ#Vb..KaD.ja3aW....bc#aalalalalalalalalalalalalalalalalalalalalalalalalalalal",
"alalalalalalalalalalalalalalalalalalalalalalalalbnaK.Wbq#9aDblab.L.Xalalalala#aK#3aDaA#z#HbfaXakalalalalalalalalalalalalalalalalalalalalalalalalalalal",
"alalalalalalalalalalalalalalalalalalalalalalalal.S.OaKa7aE#3blaD.#bkbnakalalakbj#GaLaF#Abeb#aX#ialalalalalalalalalalalalalalalalalalalalalalalalalalal",
"alalalalalalalalalalalalalalalalalalalalalalalalalataxazaD#1az.waxaI#maV.ealalb.#3bmaAaF.R#oa6aralalalalalalalalalalalalalalalalalalalalalalalalalalal",
"alalalalalalalalalalalalalalalalalalalalalalalalalal.d.i#R.UaE#M.Pbk#7aebaa9bmboa.aE#v#Uat.SaHbcalalalalalalalalalalalalalalalalalalalalalalalalalalal",
"alalalalalalalalalalalalalalalalalalalalalalalalalalal.H.a.W.#.m#iaIazaG#PazaMbc#SbqbjaIa#bpbeaealalalalalalalalalalalalalalalalalalalalalalalalalalal",
"alalalalalalalalalalalalalalalalalalalalalalalalalalal#Ab.a.#C.#ada7aF.c.z.p#maXbnbjbq.I#0aF.R#Eblbman#0alalalalalalalalalalalalalalalalalalalalalalal",
"alalalalalalalalalalalalalalalalalalalalalalalalalalalal#d#Q.N#O..#1a7..aJ.T#.aWba#TaK.i#Q.Qap#Ja9.i.#aT#Halalalalalalalalalalalalalalalalalalalalalal",
"alalalalalalalalalalalalalalalalalalalalalalalalalalalalal.Pbma9#N#Tbqbe.aawaialalbnbjbqaIaIbk.#a.ala9#T#halalalalalalalalalalalalalalalalalalalalalal",
"alalalalalalalalalalalalalalalalalalalalalalalalalalalalalalaLbq.Qa2bjai#Y.Kbfalalak#7#1aE#9bj.f#C.6#S#S..#calalalalalalalalalalalalalalalalalalalalal",
"alalalalalalalalalalalalalalalalalalalalalalalalalalalalalal.7bjbp#A.6aEbcalalalalalaX.Ia7a9aM.Hbaba#Sao.yalalalalalalalalalalalalalalalalalalalalalal",
"alalalalalalalalalalalalalalalalalalalalalalalalalalalalalalala1#vaXal.1bcalalalalalalaF#CaG.M#t.3#C#S.Gbcalalalalalalalalalalalalalalalalalalalalalal",
"alalalalalalalalalalalalalalalalalalalalalalalalalalalalalalalalalalalalalalalalalalalalbhax.VadaU#4ao#balalalalalalalalalalalalalalalalalalalalalalal",
"alalalalalalalalalalalalalalalalalalalalalalalalalalalalalalalalalalalalalalalalalalalalalalaAaK.c.5a6.Yalalalalalalalalalalalalalalalalalalalalalalal",
"alalalalalalalalalalalalalalalalalalalalalalalalalalalalalalalalalalalalalalalalalalalalalalakai.H.r#Calalalalalalalalalalalalalalalalalalalalalalalal",
"alalalalalalalalalalalalalalalalalalalalalalalalalalalalalalalalalalalalalalalalalalalalalalalalalalalalalalalalalalalalalalalalalalalalalalalalalalal"
};
SIMPLE  =                    T                                                  BITPIX  =                    8                                                  NAXIS   =                    2                                                  NAXIS1  =                   75                                                  NAXIS2  =                   75                                                  HISTORY Written by XV 3.10a                                                     END                                                                                                                                                                                                                                                                                                                                                                                                                                                                                                                                                                                                                                                                                                                                                                                                                                                                                                                                                                                                                                                                                                                                                                                                                                                                                                                                                                                                                                                                                                                                                                                                                                                                                                                                                                                                                                                                                                                                                                                                                                                                                                                                                                                                                                                                                                                                                                                                                                                                                             zE7hdy~\}bĉ{|z̳TތrxwߡgxܩM XsjϫсD{߂z¨hu{Ƨf9ۃӝ7Ѯx1{c_ƿjR4yŗŸ|e)yαeűmEw|ȬoO{yzxKl ~ xxzt ҁnP hCg  p! uzr^YG/   ^  Z}rV@'  oqmpU kyqMzzusdD6_I'oh1 yzzz|yёeR:Ӵl*}mVx{zzzzzz}|tedHrщ2r}kUzzzzzzzzzzz}zz|yyd6w2 udGzzzzzzzzzzzzzzzzzxu}sؖvZ߽kgmYDzzzzzzzzzzzzzzzzzzx{}wzzzvŊFqrØHwiWDzzzzzzzzzzzzzzzzzzzzzzz}Ȼ8tȠt2q\APzzzzzzzzzzzvzzzzzz|H, y[I$zzzzzzzzzzzvf'  ƾgL&zzzzzzzzzzzzxxzy{CŦ noN< zzzzzzzzzzzzzz{/;idJ*PK'zzzzzzzzzzzzd#_̨}iR[W]T zzzzzzzzz|m"  л|_hdaS')A! zzy( vok_V/ofjcmaH(Ƨ~}pZX4PvxN]/Ϛ8Yɬ^T;sRLL	
* ķt]<cA 	*ʵ~jAqA8$kԭ`|txG䐚LíK)§j'tz}+ΐlȹf$ŽhnroxODʶȑʌ7ŷ{u`dpW   t2 ۥӉLvg^HG|/|Ῠe}Wn`YJkRaO@[žvju[ZGj}~b@ġgs{YT1fw»x&ebfI O0¯Ӄaw:媁䆛v竏>QyL~  Je#hPd x.Agu+ӡć Ǵ嵰}½­~J;\Uٗ }üýcU(bϑ͹rhZyrɩܦǵ}>lEὫɲ]5^mnta*ȴ¾e  |i}Iݣ#Ѷ¾ɶ  sysh~0x4өһɻQ}Qmjqmv{WNѧѭҾ{ 1ýʼPsnupuo۟Աشۼȱüʷ{MqltngXϵF}gϹs\jea`ٴە؛@ánl{aiLYrޟ\ٻhxN^=R4n t˽r֤|Vr@a<!~ُЍnϧzc3X?ɫݗJ=@YDQ)N6˖4O0{׾:5 u +l                                                                                                                                       