/* XPM */
static const char * layout_icon[] = {
/* width height num_colors chars_per_pixel */
"    16    13       82            2",
/* colors */
".. c #c0c0c0",
".# c #211821",
".a c #333333",
".b c #434343",
".c c #515151",
".d c #6b6b6b",
".e c #6f6f6f",
".f c #868686",
".g c #9a9a9a",
".h c #aeaeae",
".i c #bebebe",
".j c #cccccc",
".k c #d6d6d6",
".l c #e1e1e1",
".m c #f1f1f1",
".n c #aa6d55",
".o c #552400",
".p c #aa4855",
".q c #552400",
".r c #7a6969",
".s c #554800",
".t c #d2b48c",
".u c #515151",
".v c #7a6969",
".w c #cc9966",
".x c #efe3e3",
".y c #554800",
".z c #808080",
".A c #aa9155",
".B c #515151",
".C c #cc9966",
".D c #c3c3b8",
".E c #a3a3a3",
".F c #939393",
".G c #787878",
".H c #5d5d5d",
".I c #353535",
".J c #282828",
".K c #556d55",
".L c #305850",
".M c #c0c0c0",
".N c #aab6aa",
".O c #8b99b5",
".P c #708090",
".Q c #2f7e88",
".R c #396363",
".S c #708090",
".T c #b2b2b2",
".U c #8db6cd",
".V c #bcd2ee",
".W c #8b99b5",
".X c #8b99b5",
".Y c #364b79",
".Z c #708090",
".0 c #2a3a5d",
".1 c #aab6ff",
".2 c #8b99b5",
".3 c #729fff",
".4 c #556daa",
".5 c #6187d9",
".6 c #364b79",
".7 c #637bd6",
".8 c #8b99b5",
".9 c #708090",
"#. c #556daa",
"## c #aab6ff",
"#a c #a3a3a3",
"#b c #8b99b5",
"#c c #2a3a5d",
"#d c #243351",
"#e c #3e578c",
"#f c #aa6daa",
"#g c #bbbbbb",
"#h c #b2b2b2",
"#i c #554855",
"#j c #aa91aa",
"#k c #484048",
"#l c #211821",
"#m c #7a6969",
"#n c #aa6daa",
"#o c #baa0a7",
"#p c #aa2455",
/* pixels */
"................................",
".......................W.m......",
"..................#h.V.M.M#h....",
".................Z.V.U.U.M.M.S..",
".................i.M.M.8.2.8.T..",
".................j.M.M.U.U.U.i..",
".................R.i.M.U.U.M.R..",
"...............k#l#e.j.V.l.Z....",
".............s#l.......l........",
"..........#p#l..................",
".......7.a.J....................",
".....9.P.R......................",
".......0........................"
};
